<?xml version="1.0" encoding="UTF-8"?>
<svg version="1.1" xmlns="http://www.w3.org/2000/svg" width="370" height="440">
<path d="M0 0 C2.02495376 -0.00218625 4.04936071 -0.02041255 6.07421875 -0.03930664 C14.16894886 -0.05121066 21.72865267 0.60875984 29.66015625 2.18530273 C31.14268023 2.42825974 32.62571874 2.66810877 34.109375 2.90405273 C65.7365512 8.49727137 94.74061528 25.05372804 117.66015625 47.18530273 C118.32660156 47.81178711 118.99304688 48.43827148 119.6796875 49.08374023 C151.24575196 79.43846588 165.03535585 123.75881576 166.01171875 166.48486328 C166.42470382 220.67624736 149.72719448 272.98620998 111.66015625 312.18530273 C102.94592193 320.94149966 89.21065384 333.08752094 76.28125 333.54467773 C71.44652805 333.36853451 67.242379 332.07740288 62.72265625 330.43530273 C61.98853516 330.18264648 61.25441406 329.92999023 60.49804688 329.66967773 C55.71589848 328.00197123 51.01668287 326.1497539 46.32202148 324.25170898 C43.46514646 323.10717719 40.59601121 321.99871765 37.72265625 320.89624023 C36.22798828 320.3200293 36.22798828 320.3200293 34.703125 319.73217773 C32.64464187 318.93943712 30.58469937 318.15047732 28.5234375 317.36499023 C27.53730469 316.98342773 26.55117187 316.60186523 25.53515625 316.20874023 C24.20097656 315.69706299 24.20097656 315.69706299 22.83984375 315.17504883 C20.66015625 314.18530273 20.66015625 314.18530273 18.66015625 312.18530273 C18.41175926 310.30183828 18.41175926 310.30183828 18.41406059 307.95677757 C18.4100785 307.0645296 18.4060964 306.17228163 18.40199363 305.25299585 C18.40781932 304.26662972 18.413645 303.28026358 18.41964722 302.26400757 C18.41793837 301.22099287 18.41622952 300.17797817 18.41446888 299.10335696 C18.41115748 295.58551912 18.42220481 292.06786928 18.43310547 288.55004883 C18.43366923 286.03747055 18.43335372 283.52489193 18.43222046 281.01231384 C18.43176406 275.59114538 18.43746079 270.17003817 18.44869614 264.74888229 C18.46493011 256.91075361 18.47015698 249.07264821 18.47267212 241.23450454 C18.47705253 228.51854649 18.49037101 215.80261406 18.50927734 203.08666992 C18.52762719 190.73217904 18.54178807 178.37769511 18.55029297 166.02319336 C18.55081842 165.26203493 18.55134386 164.50087651 18.55188523 163.71665268 C18.55449525 159.89825582 18.55702268 156.07985891 18.55950904 152.26146197 C18.58025232 120.5693901 18.61563562 88.87735039 18.66015625 57.18530273 C20.4091224 57.16323614 22.15816972 57.14754771 23.90722656 57.13452148 C25.3682077 57.12038208 25.3682077 57.12038208 26.85870361 57.10595703 C47.62302283 57.69406603 68.28606043 74.00283708 82.02734375 88.20483398 C93.01754068 100.64625869 100.27007705 114.13807147 104.66015625 130.18530273 C105.03140625 131.44342773 105.40265625 132.70155273 105.78515625 133.99780273 C108.7114773 146.40174205 109.10140752 159.37396331 109.41015625 172.06030273 C109.4307309 172.85033691 109.45130554 173.64037109 109.47250366 174.4543457 C109.753522 185.86233495 109.70480379 196.92511766 107.66015625 208.18530273 C107.5297998 208.98242676 107.39944336 209.77955078 107.26513672 210.60083008 C105.36857578 222.14501853 102.54799823 232.53953172 97.66015625 243.18530273 C97.07621094 244.51561523 97.07621094 244.51561523 96.48046875 245.87280273 C92.30946384 254.84765467 86.31169053 264.82920226 78.66015625 271.18530273 C76.50585938 270.81347656 76.50585938 270.81347656 74.66015625 270.18530273 C74.36593148 252.43072364 74.2186559 234.85807688 76.16015625 217.18530273 C77.61872395 203.58972981 77.97043581 190.10652508 77.97265625 176.43530273 C77.97587891 175.46963379 77.97910156 174.50396484 77.98242188 173.5090332 C78.03176686 149.43279073 75.15190065 123.47062344 57.66015625 105.18530273 C55.02015625 102.87530273 52.38015625 100.56530273 49.66015625 98.18530273 C49.33015625 167.48530273 49.00015625 236.78530273 48.66015625 308.18530273 C76.38409421 301.25431824 94.35036896 288.4649434 109.4296875 264.00170898 C125.95088507 236.26533948 131.12350444 203.80559867 130.97265625 171.93530273 C130.97083344 171.13025299 130.96901062 170.32520325 130.96713257 169.49575806 C130.82788779 132.85261104 120.83321839 99.51390754 95.66015625 72.18530273 C95.17595215 71.64663574 94.69174805 71.10796875 94.19287109 70.55297852 C75.77955159 50.2204733 48.37295733 34.83058963 20.66015625 33.18530273 C-8.29455393 32.12326653 -36.80401636 34.3449581 -62.33984375 49.18530273 C-63.34144531 49.76280273 -64.34304687 50.34030273 -65.375 50.93530273 C-79.74828081 59.66843538 -94.01405205 72.03008319 -103.33984375 86.18530273 C-103.87609375 86.96647461 -104.41234375 87.74764648 -104.96484375 88.55249023 C-127.39625639 122.29974943 -132.46187456 162.28966865 -125.7109375 201.87280273 C-125.03540431 205.02271751 -124.23244189 208.09018969 -123.33984375 211.18530273 C-122.99050781 212.4550293 -122.64117187 213.72475586 -122.28125 215.03295898 C-117.30178899 232.46526399 -108.47068668 247.36441633 -96.80859375 261.22436523 C-95.33984375 263.18530273 -95.33984375 263.18530273 -95.33984375 265.18530273 C-94.67984375 265.18530273 -94.01984375 265.18530273 -93.33984375 265.18530273 C-93.33984375 265.84530273 -93.33984375 266.50530273 -93.33984375 267.18530273 C-92.67984375 267.18530273 -92.01984375 267.18530273 -91.33984375 267.18530273 C-90.20969027 268.28013892 -89.08722834 269.38347255 -87.9921875 270.51342773 C-70.53754901 288.17438583 -48.37343834 300.66098353 -26.13525391 311.31323242 C-23.24005617 312.71949382 -20.38939762 314.21301204 -17.52734375 315.68530273 C-4.18605298 322.35594812 9.80140855 327.69816698 23.66015625 333.18530273 C25.2645582 333.83055134 26.86874744 334.47632929 28.47265625 335.12280273 C30.2017639 335.81045116 31.93094005 336.49792732 33.66015625 337.18530273 C34.27665039 337.43393066 34.89314453 337.68255859 35.52832031 337.9387207 C40.8791408 340.09338819 46.25808024 342.16279162 51.66015625 344.18530273 C52.44132813 344.4832373 53.2225 344.78117187 54.02734375 345.08813477 C68.30668723 350.44585355 82.57273264 353.30997088 97.22265625 347.68530273 C99.03596158 346.85372322 100.84869919 346.02090072 102.66015625 345.18530273 C103.32015625 345.18530273 103.98015625 345.18530273 104.66015625 345.18530273 C105.00046875 344.10249023 105.00046875 344.10249023 105.34765625 342.99780273 C107.82135052 337.69702931 111.23810045 335.10811306 116.53515625 332.87280273 C126.60468486 329.52988231 137.92029625 329.94019394 147.66015625 334.18530273 C156.15297 338.68149825 161.5944321 346.22395521 164.66015625 355.18530273 C168.2327384 368.88020097 164.3820835 382.28084845 157.52734375 394.21264648 C151.83021133 403.28276734 144.99087537 407.98787936 135.66015625 413.18530273 C134.82355469 413.65967773 133.98695313 414.13405273 133.125 414.62280273 C104.84067309 429.73296068 71.96849279 429.14723831 41.87841797 420.37426758 C35.73870821 418.49436003 29.69427247 416.37740227 23.66015625 414.18530273 C22.81517578 413.88301758 21.97019531 413.58073242 21.09960938 413.26928711 C13.52547515 410.5588498 5.98997852 407.80109514 -1.40234375 404.62280273 C-6.35813231 402.52478254 -11.37800375 400.68568642 -16.46484375 398.93530273 C-17.19324463 398.67676514 -17.92164551 398.41822754 -18.67211914 398.15185547 C-27.15111102 395.29824794 -35.75726197 395.02670138 -44.63818359 395.11938477 C-45.50794327 395.12405762 -46.37770294 395.12873047 -47.27381897 395.13354492 C-49.14362261 395.14396453 -51.01341503 395.15659836 -52.88319016 395.17126846 C-55.85292503 395.19350568 -58.82259412 395.20744537 -61.79238892 395.21896362 C-70.22984725 395.25235313 -78.66719659 395.29405105 -87.10449219 395.35668945 C-92.28370511 395.39454915 -97.46280848 395.41742277 -102.64213943 395.43099594 C-104.60275969 395.43899331 -106.5633662 395.45252017 -108.52390671 395.47192764 C-123.7123108 395.61968989 -138.2872859 395.41459076 -150.15234375 384.52124023 C-159.62711122 374.14636985 -160.02149315 362.92600122 -159.51464844 349.5222168 C-158.78165408 339.72302407 -152.78829961 333.39962934 -145.96484375 326.93530273 C-142.28602221 324.48275504 -138.44056454 322.81353011 -134.33984375 321.18530273 C-133.5921875 320.88237305 -132.84453125 320.57944336 -132.07421875 320.26733398 C-126.15056573 318.06149816 -120.25515687 316.62765448 -114.17480469 319.04663086 C-107.52051373 322.44903827 -101.11181901 326.20009322 -94.75170898 330.1237793 C-93.01711006 331.19160262 -91.27546366 332.24722555 -89.53320312 333.30249023 C-88.42138672 333.98569336 -87.30957031 334.66889648 -86.1640625 335.37280273 C-85.16463623 335.98510742 -84.16520996 336.59741211 -83.13549805 337.22827148 C-80.18876182 339.29106404 -77.80550021 341.57450819 -75.33984375 344.18530273 C-80.82075868 349.66621766 -101.00768461 347.92048977 -108.71484375 348.31030273 C-110.33726999 348.39697496 -111.9596662 348.48421138 -113.58203125 348.57202148 C-117.50098754 348.78293017 -121.42026639 348.98628419 -125.33984375 349.18530273 C-125.84902344 350.26038086 -126.35820313 351.33545898 -126.8828125 352.44311523 C-127.31243286 353.3502124 -127.31243286 353.3502124 -127.75073242 354.27563477 C-128.77347379 357.59096132 -127.63468853 360.10233897 -126.33984375 363.18530273 C-118.4384554 367.13599691 -106.17780583 365.33862583 -97.52734375 365.31030273 C-96.08251953 365.31053032 -94.63769531 365.310775 -93.19287109 365.31103516 C-84.15232524 365.29560327 -75.12253687 365.11641454 -66.0859375 364.85327148 C-63.97436553 364.7951551 -61.86279327 364.73704964 -59.7512207 364.67895508 C-55.62775988 364.56447093 -51.5058645 364.42716207 -47.38354492 364.27758789 C-32.23053643 363.79558615 -20.94130769 366.22439609 -6.96484375 372.18530273 C12.81018529 380.42385759 32.9846468 388.51405068 53.66015625 394.18530273 C54.33272461 394.37705078 55.00529297 394.56879883 55.69824219 394.76635742 C71.66796393 399.23030609 89.8125789 400.99453197 105.66015625 395.18530273 C106.68367188 394.82178711 107.7071875 394.45827148 108.76171875 394.08374023 C119.12700533 390.09709155 128.31970638 384.01258067 133.83203125 374.07202148 C135.1740871 370.94644404 135.72554 368.62430794 135.22265625 365.24780273 C133.74873803 362.96245313 133.74873803 362.96245313 130.91015625 361.93530273 C127.74880929 361.83580889 127.74880929 361.83580889 126.3203125 363.45092773 C125.36679258 364.67806641 124.41803387 365.90891162 123.47265625 367.14233398 C115.90841769 375.66840461 103.71323889 379.98732036 92.66015625 381.18530273 C68.0071811 382.49390154 48.60734715 376.80913105 25.66015625 368.18530273 C24.07493639 367.60261747 22.48910642 367.02158594 20.90234375 366.44311523 C8.0754425 361.74505092 -4.5624314 356.58625215 -16.921875 350.76733398 C-19.43010289 349.60638279 -21.94054833 348.48116059 -24.4765625 347.38452148 C-34.83560956 342.89723976 -44.84419038 337.94909241 -54.77148438 332.57543945 C-57.52475847 331.08521676 -60.28387343 329.60612289 -63.04296875 328.12670898 C-83.55019871 317.08819834 -102.0163105 304.95001256 -118.33984375 288.18530273 C-119.0975708 287.4680603 -119.0975708 287.4680603 -119.87060547 286.73632812 C-124.49810113 282.29960939 -128.19677036 277.55386838 -131.77734375 272.24780273 C-132.339375 271.41949951 -132.90140625 270.59119629 -133.48046875 269.73779297 C-138.50070634 262.1966171 -142.62280462 254.43553279 -146.33984375 246.18530273 C-146.80777344 245.15147461 -147.27570313 244.11764648 -147.7578125 243.05249023 C-149.02824341 240.1207266 -150.20401546 237.17168119 -151.33984375 234.18530273 C-151.76007813 233.09604492 -152.1803125 232.00678711 -152.61328125 230.88452148 C-156.28543878 220.70263015 -158.22402084 210.36108157 -159.93310547 199.69018555 C-160.27280296 197.59817098 -160.64773285 195.51191676 -161.03125 193.42749023 C-167.48671071 154.51415362 -159.62622983 108.15619692 -137.08984375 75.18530273 C-135.85206453 73.5095401 -134.6010037 71.84354076 -133.33984375 70.18530273 C-132.59605469 69.16436523 -131.85226563 68.14342773 -131.0859375 67.09155273 C-110.37824279 39.20171617 -79.67273647 15.98546259 -45.90234375 6.49780273 C-44.82327759 6.18601074 -44.82327759 6.18601074 -43.72241211 5.86791992 C-38.38799626 4.37041513 -33.05533456 3.30022582 -27.5625 2.54467773 C-25.30758077 2.29363655 -25.30758077 2.29363655 -23.33984375 1.18530273 C-15.64747848 -0.1083113 -7.77484672 -0.00093628 0 0 Z " fill="#0E0E0E" transform="translate(183.33984375,9.814697265625)"/>
<path d="M0 0 C0.8559375 0.00902344 1.711875 0.01804687 2.59375 0.02734375 C3.2228125 0.03894531 3.851875 0.05054687 4.5 0.0625 C5.78613054 4.54489369 6.10306027 8.61601159 4.5 13.0625 C1.99841404 15.397007 -0.88092349 16.59120997 -4 17.9375 C-5.74158851 18.76915095 -7.47981457 19.60787499 -9.21484375 20.453125 C-10.09769043 20.87787109 -10.98053711 21.30261719 -11.89013672 21.74023438 C-22.51324247 27.12234296 -32.49197144 34.31684222 -41.5 42.0625 C-42.32757813 42.73410156 -43.15515625 43.40570313 -44.0078125 44.09765625 C-59.34220762 57.01700138 -68.69373988 76.33216926 -71.5 96.0625 C-72.41193147 112.28859095 -72.43895061 128.46837069 -67.5 144.0625 C-66.95666016 145.78533203 -66.95666016 145.78533203 -66.40234375 147.54296875 C-58.64209637 169.56102657 -44.18270907 186.47507522 -25.5 200.0625 C-25.5 164.4225 -25.5 128.7825 -25.5 92.0625 C-33.60371736 97.41590615 -33.60371736 97.41590615 -41.5 103.0625 C-44.5 105.0625 -44.5 105.0625 -48.5 105.0625 C-49.29896318 89.01665613 -46.18372268 76.18237682 -35.46875 63.6953125 C-26.97121019 54.79752625 -16.82434952 48.0497964 -6.3125 41.7890625 C-3.52768685 40.18483947 -3.52768685 40.18483947 -1.4375 38.2734375 C0.5 37.0625 0.5 37.0625 5.5 38.0625 C5.5 106.3725 5.5 174.6825 5.5 245.0625 C-1.22402008 246.74350502 -6.82860057 242.45068075 -12.6875 239.25 C-17.11704371 236.84464591 -21.54992217 234.55765802 -26.125 232.4375 C-40.58095178 225.24870013 -54.23238167 215.62256033 -65.5 204.0625 C-66.35464844 203.216875 -67.20929688 202.37125 -68.08984375 201.5 C-92.0743527 176.66550075 -102.91600812 141.2319744 -102.80297852 107.33178711 C-102.2151246 75.95339097 -88.47164693 48.15374108 -66.24609375 26.47265625 C-48.87798171 10.20164637 -23.98533757 -0.33312969 0 0 Z " fill="#1555A4" transform="translate(177.5,65.9375)"/>
<path d="M0 0 C5.17892867 -0.21356407 9.59583034 0.42193469 14.5 2 C15.1906958 2.22147705 15.8813916 2.4429541 16.59301758 2.67114258 C41.94622616 11.2203126 62.99034923 30.53476747 75.375 54.0625 C78.26566919 60.1786334 80.21806601 66.48642575 82 73 C82.556875 74.8871875 82.556875 74.8871875 83.125 76.8125 C86.05132105 89.21643932 86.44125127 102.18866057 86.75 114.875 C86.78086197 116.06005127 86.78086197 116.06005127 86.81234741 117.26904297 C87.09336575 128.67703222 87.04464754 139.73981493 85 151 C84.86964355 151.79712402 84.73928711 152.59424805 84.60498047 153.41552734 C82.70841953 164.9597158 79.88784198 175.35422898 75 186 C74.61070312 186.886875 74.22140625 187.77375 73.8203125 188.6875 C69.64930759 197.66235193 63.65153428 207.64389953 56 214 C53.84570312 213.62817383 53.84570312 213.62817383 52 213 C51.70577523 195.24542091 51.55849965 177.67277415 53.5 160 C54.9585677 146.40442707 55.31027956 132.92122234 55.3125 119.25 C55.31572266 118.28433105 55.31894531 117.31866211 55.32226562 116.32373047 C55.37200645 92.05435449 52.36988082 66.54749986 35 48 C32.88416907 46.06297169 30.74085655 44.20565905 28.50390625 42.41015625 C28.00761719 41.94480469 27.51132813 41.47945312 27 41 C27 40.34 27 39.68 27 39 C25.515 38.505 25.515 38.505 24 38 C24 37.34 24 36.68 24 36 C22.515 35.505 22.515 35.505 21 35 C17 30.54285714 17 30.54285714 17 28 C16.38125 27.79375 15.7625 27.5875 15.125 27.375 C12.15346355 25.45224112 11.86975341 23.33405473 11 20 C10.34 20 9.68 20 9 20 C8.67386719 19.38511719 8.34773437 18.77023438 8.01171875 18.13671875 C7.35623047 16.92435547 7.35623047 16.92435547 6.6875 15.6875 C6.25824219 14.88699219 5.82898438 14.08648437 5.38671875 13.26171875 C4.12728963 10.98598893 4.12728963 10.98598893 2.375 9.46875 C-0.10717013 6.817341 0.28732001 3.50530417 0 0 Z " fill="#1455A5" transform="translate(206,67)"/>
<path d="M0 0 C0 68.31 0 136.62 0 207 C-1.32 207.33 -2.64 207.66 -4 208 C-5.4783226 205.04335481 -5.06032783 202.25770263 -5 199 C-5.99 199 -6.98 199 -8 199 C-9.38671875 197.390625 -9.38671875 197.390625 -10.6875 195.25 C-11.12449219 194.55390625 -11.56148437 193.8578125 -12.01171875 193.140625 C-13 191 -13 191 -13 187 C-13.66 187 -14.32 187 -15 187 C-15.48919922 186.11248047 -15.48919922 186.11248047 -15.98828125 185.20703125 C-17.8787122 181.78864136 -19.76086796 178.38755883 -21.8125 175.0625 C-23 173 -23 173 -23 171 C-23.66 171 -24.32 171 -25 171 C-27 168 -27 168 -27 165 C-27.66 165 -28.32 165 -29 165 C-30.17387142 162.65225717 -30.13715604 161.23917846 -30.15821838 158.62142944 C-30.1680072 157.70153732 -30.17779602 156.7816452 -30.18788147 155.83387756 C-30.19363693 154.82183762 -30.1993924 153.80979767 -30.20532227 152.76708984 C-30.21522186 151.7036586 -30.22512146 150.64022736 -30.23532104 149.54457092 C-30.2670008 146.01671605 -30.29171907 142.48884768 -30.31640625 138.9609375 C-30.33697018 136.51998538 -30.3579665 134.07903686 -30.37937927 131.63809204 C-30.43465783 125.20356155 -30.48404158 118.76899862 -30.53222656 112.33441162 C-30.5823994 105.77239077 -30.63810745 99.21041721 -30.69335938 92.6484375 C-30.80101168 79.76566565 -30.90262875 66.88285345 -31 54 C-32.91763215 55.269376 -34.83406793 56.54055945 -36.75 57.8125 C-37.81734375 58.52019531 -38.8846875 59.22789062 -39.984375 59.95703125 C-42.38047278 61.58029438 -44.6958903 63.25188199 -47 65 C-50 67 -50 67 -54 67 C-54.79896318 50.95415613 -51.68372268 38.11987682 -40.96875 25.6328125 C-32.47121019 16.73502625 -22.32434952 9.9872964 -11.8125 3.7265625 C-9.02768685 2.12233947 -9.02768685 2.12233947 -6.9375 0.2109375 C-5 -1 -5 -1 0 0 Z " fill="#0F0F0F" transform="translate(183,104)"/>
<path d="M0 0 C0 66 0 132 0 200 C-0.99 200.33 -1.98 200.66 -3 201 C-4.53389074 197.93221852 -4.13327518 194.72210869 -4.12025452 191.35653687 C-4.12110894 190.55853531 -4.12196337 189.76053375 -4.12284368 188.93835032 C-4.12449799 186.24973063 -4.11897791 183.56117259 -4.11352539 180.87255859 C-4.11324348 178.95110577 -4.11340132 177.02965284 -4.1139679 175.10820007 C-4.11425573 169.87913706 -4.10836129 164.65009681 -4.10139394 159.4210391 C-4.09515804 153.9610833 -4.09455641 148.50112703 -4.09336853 143.04116821 C-4.09025591 132.69622571 -4.08204346 122.35129374 -4.07201904 112.00635588 C-4.06085575 100.23144426 -4.05534691 88.45653214 -4.05032361 76.68161654 C-4.03986079 52.45440519 -4.02226269 28.22720318 -4 4 C-5.65161581 4.75836443 -7.29617138 5.53212076 -8.9375 6.3125 C-9.85402344 6.74175781 -10.77054688 7.17101562 -11.71484375 7.61328125 C-14.30969412 8.85078661 -14.30969412 8.85078661 -15 12 C-18.25692894 13.56583122 -21.46607864 14.81428822 -24.875 16 C-25.57625 16.33 -26.2775 16.66 -27 17 C-27.33 17.99 -27.66 18.98 -28 20 C-28.99 20 -29.98 20 -31 20 C-31 20.66 -31 21.32 -31 22 C-31.66 22 -32.32 22 -33 22 C-33 22.66 -33 23.32 -33 24 C-35.13080095 26.19347156 -37.29196221 28.33904401 -39.52734375 30.42578125 C-44.71192078 35.74228136 -46.15028673 41.95686101 -48 49 C-48.4134552 50.33433268 -48.8293432 51.66792014 -49.25 53 C-49.95221632 55.80886528 -50.17447113 58.1212263 -50 61 C-46.535 60.505 -46.535 60.505 -43 60 C-43 59.34 -43 58.68 -43 58 C-41.34928604 56.97388051 -39.68029994 55.97691857 -38 55 C-37.484375 54.46375 -36.96875 53.9275 -36.4375 53.375 C-34.70220387 51.71515152 -33.33528396 51.40263517 -31 51 C-31.1796875 52.78515625 -31.1796875 52.78515625 -32 55 C-34.2578125 56.74609375 -34.2578125 56.74609375 -37.125 58.4375 C-40.52272915 60.48230717 -43.79078127 62.52433008 -46.9375 64.9375 C-50 67 -50 67 -54 67 C-54.79896318 50.95415613 -51.68372268 38.11987682 -40.96875 25.6328125 C-32.47121019 16.73502625 -22.32434952 9.9872964 -11.8125 3.7265625 C-9.02768685 2.12233947 -9.02768685 2.12233947 -6.9375 0.2109375 C-5 -1 -5 -1 0 0 Z " fill="#040506" transform="translate(183,104)"/>
<path d="M0 0 C-2.71494932 2.71494932 -5.21472069 2.76631285 -8.90625 3.4375 C-11.1997607 3.8668085 -11.1997607 3.8668085 -13 6 C-14.96492099 6.72047103 -16.93053649 7.43921988 -18.90234375 8.140625 C-21.87846655 9.35989319 -24.37119597 11.16595068 -27 13 C-27.99 13.33 -28.98 13.66 -30 14 C-31.03249384 14.96641423 -32.0300553 15.97082204 -33 17 C-34.18104222 18.02829773 -35.36914274 19.04852003 -36.5625 20.0625 C-47.48692113 29.62387409 -58.21593622 39.57325682 -62 54 C-62.66 54 -63.32 54 -64 54 C-64.67561748 55.6630584 -65.33933281 57.33094605 -66 59 C-66.495 60.19625 -66.99 61.3925 -67.5 62.625 C-69.37953935 67.60530223 -70.18095887 72.75813679 -71 78 C-71.66 78 -72.32 78 -73 78 C-73.9316458 86.32857387 -74.15223909 94.56148079 -74.125 102.9375 C-74.12886719 104.12279297 -74.13273437 105.30808594 -74.13671875 106.52929688 C-74.76129149 119.08443695 -74.76129149 119.08443695 -72 131 C-71.95977609 133.3329866 -71.95679753 135.66706666 -72 138 C-71.34 138 -70.68 138 -70 138 C-69.80664062 138.78246094 -69.61328125 139.56492188 -69.4140625 140.37109375 C-69.15367188 141.38300781 -68.89328125 142.39492187 -68.625 143.4375 C-68.36976562 144.44683594 -68.11453125 145.45617187 -67.8515625 146.49609375 C-67.27426046 149.15570324 -67.27426046 149.15570324 -65 150 C-64.578125 152.1171875 -64.578125 152.1171875 -64.25 154.875 C-63.13685856 161.47737328 -60.50554001 166.35711597 -57 172 C-56.45037598 172.89017822 -56.45037598 172.89017822 -55.88964844 173.79833984 C-51.59373652 181.17896624 -51.59373652 181.17896624 -46.23046875 187.71875 C-45 189 -45 189 -45 192 C-44.41347656 192.25523437 -43.82695313 192.51046875 -43.22265625 192.7734375 C-40.77992422 194.12144779 -39.32476943 195.57875971 -37.4375 197.625 C-33.50715156 201.66513471 -29.25930256 204.88768831 -24.65625 208.125 C-22.37923019 209.7323081 -20.1893508 211.40223216 -18 213.125 C-13.33506253 216.66257758 -8.18574884 219.31179931 -3 222 C-3 222.66 -3 223.32 -3 224 C-1.63875 224.1546875 -1.63875 224.1546875 -0.25 224.3125 C3.20056334 225.04242686 4.2619066 225.91688218 7 228 C8.97904628 229.08094647 10.98104295 230.12056887 13 231.125 C14.03125 231.64320313 15.0625 232.16140625 16.125 232.6953125 C18.45934896 233.75465021 20.49992869 234.50719748 23 235 C22.67 233.68 22.34 232.36 22 231 C22.66 231 23.32 231 24 231 C24.495 234.465 24.495 234.465 25 238 C22.66482655 238.82114205 21.44301979 239.16398732 19.08398438 238.29077148 C18.42720703 237.90477783 17.77042969 237.51878418 17.09375 237.12109375 C16.35664795 236.69795898 15.6195459 236.27482422 14.86010742 235.83886719 C14.08127197 235.37641602 13.30243652 234.91396484 12.5 234.4375 C10.86196333 233.49125946 9.22264015 232.54724246 7.58203125 231.60546875 C6.78877441 231.14833496 5.99551758 230.69120117 5.17822266 230.22021484 C2.57230302 228.76040915 -0.09827061 227.49516746 -2.8125 226.25 C-17.21620261 219.15863735 -30.79934703 209.49135694 -42 198 C-42.85464844 197.154375 -43.70929688 196.30875 -44.58984375 195.4375 C-68.5743527 170.60300075 -79.41600812 135.1694744 -79.30297852 101.26928711 C-78.7151246 69.89089097 -64.97164693 42.09124108 -42.74609375 20.41015625 C-33.23269 11.4976915 -13.70256758 -4.44407597 0 0 Z " fill="#0A2D69" transform="translate(154,72)"/>
<path d="M0 0 C4.90109864 0.41633774 8.80047047 2.11595664 13.0625 4.4375 C13.71444336 4.79094482 14.36638672 5.14438965 15.03808594 5.50854492 C38.56438902 18.65005701 56.76738257 40.06083899 64.1953125 66.05859375 C64.46085937 67.02925781 64.72640625 67.99992187 65 69 C65.556875 70.8871875 65.556875 70.8871875 66.125 72.8125 C69.05132105 85.21643932 69.44125127 98.18866057 69.75 110.875 C69.78086197 112.06005127 69.78086197 112.06005127 69.81234741 113.26904297 C70.09336575 124.67703222 70.04464754 135.73981493 68 147 C67.86964355 147.79712402 67.73928711 148.59424805 67.60498047 149.41552734 C65.70841953 160.9597158 62.88784198 171.35422898 58 182 C57.61070312 182.886875 57.22140625 183.77375 56.8203125 184.6875 C52.64930759 193.66235193 46.65153428 203.64389953 39 210 C37.68 209.67 36.36 209.34 35 209 C35 196.79 35 184.58 35 172 C35.99 172.33 36.98 172.66 38 173 C38 183.23 38 193.46 38 204 C46.09320327 199.95339837 49.13370847 192.22794275 52 184 C52.66 184 53.32 184 54 184 C54.103125 183.360625 54.20625 182.72125 54.3125 182.0625 C55.05469328 178.75636631 56.09348989 175.64336478 57.1796875 172.4375 C62.73259891 155.93742038 65.19594033 140.03840546 65.125 122.6875 C65.12278442 121.97313782 65.12056885 121.25877563 65.11828613 120.52276611 C65.023058 94.3533434 64.60737029 68.18292716 51 45 C51 44.01 51 43.02 51 42 C50.34 42 49.68 42 49 42 C48.505 40.02 48.505 40.02 48 38 C47.34 38 46.68 38 46 38 C44.73339238 36.35578869 43.53694454 34.6572705 42.375 32.9375 C39.14952305 28.35330566 35.86466317 24.79739853 31.46875 21.33984375 C30.9840625 20.89769531 30.499375 20.45554687 30 20 C30 19.34 30 18.68 30 18 C29.31035156 17.7525 28.62070313 17.505 27.91015625 17.25 C24.52155245 15.79449233 21.55675526 13.96625129 18.4375 12 C13.3388853 8.78355412 13.3388853 8.78355412 8 6 C8 5.34 8 4.68 8 4 C6.88625 3.87625 5.7725 3.7525 4.625 3.625 C1 3 1 3 -1 1 C-0.67 0.67 -0.34 0.34 0 0 Z " fill="#0B3375" transform="translate(223,71)"/>
<path d="M0 0 C0.66 0 1.32 0 2 0 C4.9116088 15.73430493 3.65066793 33.29016926 1 49 C0.82275391 50.05461426 0.64550781 51.10922852 0.46289062 52.19580078 C-0.15392187 55.80036119 -0.79056176 59.40072788 -1.4375 63 C-1.64270264 64.14654053 -1.84790527 65.29308105 -2.05932617 66.47436523 C-5.77814762 86.35995214 -14.4610961 104.48238122 -26 121 C-25.67 121.66 -25.34 122.32 -25 123 C-27.475 123.99 -27.475 123.99 -30 125 C-30 125.66 -30 126.32 -30 127 C-30.66 127 -31.32 127 -32 127 C-32.37125 127.928125 -32.37125 127.928125 -32.75 128.875 C-34.23740369 131.40358627 -35.43678009 131.71839004 -38 133 C-39.09166275 134.93330603 -39.09166275 134.93330603 -40 137 C-41.4375 138.75 -41.4375 138.75 -43 140 C-43.99 140 -44.98 140 -46 140 C-46.05285156 140.598125 -46.10570312 141.19625 -46.16015625 141.8125 C-47.40393592 145.05211217 -49.34576087 145.55062421 -52.4375 147 C-54.05785156 147.76376953 -54.05785156 147.76376953 -55.7109375 148.54296875 C-61.06682895 150.9155905 -66.44151024 153.14717008 -72 155 C-72.66 154.67 -73.32 154.34 -74 154 C-74 154.66 -74 155.32 -74 156 C-76.31 156 -78.62 156 -81 156 C-77.30592551 152.72726557 -73.12966322 151.49152664 -68.5625 149.875 C-59.98785437 146.68909499 -53.17640836 142.67413334 -46 137 C-45.24332031 136.41347656 -44.48664063 135.82695312 -43.70703125 135.22265625 C-15.66178093 112.16805009 -5.69132378 72.76052977 -2.2008667 38.34628296 C-1.60755504 31.41593044 -1.55533171 24.45133928 -1.4375 17.5 C-1.39342901 15.12787295 -1.3469513 12.75587244 -1.29469299 10.38391113 C-1.26291355 8.92722518 -1.23596928 7.47042363 -1.21446228 6.0135498 C-1.11207431 1.11207431 -1.11207431 1.11207431 0 0 Z " fill="#040507" transform="translate(316,164)"/>
<path d="M0 0 C0.99 0.33 1.98 0.66 3 1 C2.46890625 2.10214844 1.9378125 3.20429688 1.390625 4.33984375 C-10.44327901 29.45053799 -13.50735135 57.13908409 -5 84 C-4.63777344 85.14855469 -4.27554688 86.29710937 -3.90234375 87.48046875 C4.35995904 110.92300243 20.5339294 129.35595293 41 143 C41 143.66 41 144.32 41 145 C37.21213403 144.4739075 34.82847776 143.61896089 32 141 C32 140.34 32 139.68 32 139 C31.443125 138.9175 30.88625 138.835 30.3125 138.75 C23.00663884 136.38053152 16.46732487 128.09459784 12 122 C12 121.34 12 120.68 12 120 C11.401875 119.773125 10.80375 119.54625 10.1875 119.3125 C7.40651597 117.64390958 6.4358084 115.8716168 5 113 C5 112.34 5 111.68 5 111 C4.34 111 3.68 111 3 111 C0 105.375 0 105.375 0 102 C-0.66 102 -1.32 102 -2 102 C-5.94471956 94.98716523 -8.17820016 87.59934368 -10.43457031 79.91748047 C-10.96818137 78.10790309 -11.52630349 76.30560568 -12.0859375 74.50390625 C-16.6995803 56.8182755 -16.16357546 33.53355518 -7.96875 17.05078125 C-6.9259146 14.84316599 -6.21215478 12.64635507 -5.5 10.3125 C-4.23164924 6.31824622 -2.49523502 3.35566089 0 0 Z " fill="#0A3173" transform="translate(115,126)"/>
<path d="M0 0 C2.25 0.0625 2.25 0.0625 5 1 C7.47005978 4.0698187 9 6.99496016 9 11 C9.66 11 10.32 11 11 11 C11.84080019 13.41429769 12.67281402 15.83103993 13.5 18.25 C13.73847656 18.93191406 13.97695313 19.61382812 14.22265625 20.31640625 C15.39421287 23.76413003 16 26.31702904 16 30 C16.66 30 17.32 30 18 30 C19.16941663 36.49624064 19.16161655 42.90423461 19.16796875 49.4921875 C19.17129715 50.71036163 19.17462555 51.92853577 19.17805481 53.18362427 C19.18311165 55.76743189 19.18546352 58.35124603 19.18530273 60.93505859 C19.18745777 64.79927113 19.20553872 68.66318288 19.22460938 72.52734375 C19.25946922 88.44718156 18.57498455 104.15701528 17 120 C16.34 120 15.68 120 15 120 C14.34 120.99 13.68 121.98 13 123 C12.87880055 115.83442974 13.21128277 108.87378164 13.984375 101.75390625 C15.03974906 91.09794985 15.30797563 80.53128492 15.26074219 69.82836914 C15.24988614 66.90685858 15.2607956 63.98594697 15.2734375 61.06445312 C15.28957645 40.2705702 11.8858124 22.45676306 2 4 C1.32813689 2.66927757 0.65882752 1.33722418 0 0 Z " fill="#0A2E83" transform="translate(246,120)"/>
<path d="M0 0 C0.67933594 0.25652344 1.35867187 0.51304687 2.05859375 0.77734375 C5.64199781 2.18384751 7.6011674 3.3511674 10.375 6.125 C6.745 5.795 3.115 5.465 -0.625 5.125 C-0.625 4.465 -0.625 3.805 -0.625 3.125 C-11.19517114 -1.05329663 -22.26298879 -0.21817283 -33.41015625 -0.09765625 C-35.51955931 -0.0869667 -37.62897123 -0.07791417 -39.73838806 -0.07041931 C-45.25976454 -0.04775223 -50.7808831 -0.00873128 -56.30212402 0.0355835 C-65.17010869 0.10609122 -74.0380922 0.160962 -82.90627861 0.19793892 C-86.00308914 0.2146705 -89.09960219 0.24420863 -92.19630432 0.27464294 C-94.08146895 0.28509652 -95.9666364 0.29505739 -97.85180664 0.30444336 C-98.71565475 0.31634705 -99.57950287 0.32825073 -100.4695282 0.34051514 C-102.52260517 0.34465721 -104.57541021 0.24468256 -106.625 0.125 C-107.285 -0.535 -107.945 -1.195 -108.625 -1.875 C-104.48469311 -3.03384485 -100.50347641 -2.98236457 -96.234375 -2.9375 C-94.4936529 -2.92900333 -92.75293021 -2.92062659 -91.01220703 -2.91235352 C-89.63431 -2.9030632 -89.63431 -2.9030632 -88.22857666 -2.89358521 C-70.4080356 -2.77752089 -52.62183861 -2.99195047 -34.81152344 -3.60742188 C-10.66327454 -4.39833255 -10.66327454 -4.39833255 0 0 Z " fill="#070707" transform="translate(166.625,377.875)"/>
<path d="M0 0 C2.02495376 -0.00218625 4.04936071 -0.02041255 6.07421875 -0.03930664 C14.15269101 -0.05118675 21.7525129 0.52734498 29.66015625 2.18530273 C30.36897949 2.33233643 31.07780273 2.47937012 31.80810547 2.63085938 C33.51380231 3.00165334 35.21248647 3.40433822 36.91015625 3.81030273 C38.0084375 4.07069336 39.10671875 4.33108398 40.23828125 4.59936523 C41.0375 4.79272461 41.83671875 4.98608398 42.66015625 5.18530273 C42.33015625 5.84530273 42.00015625 6.50530273 41.66015625 7.18530273 C38.42018744 7.27530187 35.78044717 6.98976093 32.66015625 6.18530273 C23.02167833 4.22206022 13.63565309 3.90156261 3.84790039 3.97949219 C1.46554904 3.99785752 -0.91641292 4.00000023 -3.29882812 3.99975586 C-18.06792167 3.88288346 -18.06792167 3.88288346 -32.33984375 7.18530273 C-35.91609639 7.98179553 -39.50355849 8.69296243 -43.09765625 9.40405273 C-45.87495124 10.07328044 -47.83136022 10.91531735 -50.33984375 12.18530273 C-52.69921875 12.59936523 -52.69921875 12.59936523 -55.08984375 12.81030273 C-55.8890625 12.88506836 -56.68828125 12.95983398 -57.51171875 13.03686523 C-58.41664062 13.1103418 -58.41664062 13.1103418 -59.33984375 13.18530273 C-52.78779181 5.30451298 -38.36736164 4.2450179 -28.76171875 2.76342773 C-25.48970538 2.38188469 -25.48970538 2.38188469 -23.33984375 1.18530273 C-15.64747848 -0.1083113 -7.77484672 -0.00093628 0 0 Z " fill="#020202" transform="translate(183.33984375,9.814697265625)"/>
<path d="M0 0 C0.66 0 1.32 0 2 0 C0.66155974 4.38273576 -1.08693148 8.21616951 -3.25 12.25 C-13.45496328 32.13411878 -16.2900957 52.91952835 -17 75 C-17.99 75 -18.98 75 -20 75 C-20 77.31 -20 79.62 -20 82 C-20.33 82 -20.66 82 -21 82 C-21.43706061 61.43125543 -20.04490241 44.41996558 -13 25 C-12.77489746 24.37158203 -12.54979492 23.74316406 -12.31787109 23.09570312 C-8.39564653 12.19782327 -8.39564653 12.19782327 -6 11 C-5.59270772 8.67843403 -5.25561323 6.3431213 -5 4 C-4.01 4 -3.02 4 -2 4 C-1.34 2.68 -0.68 1.36 0 0 Z " fill="#050608" transform="translate(72,103)"/>
<path d="M0 0 C0.99 0.33 1.98 0.66 3 1 C3 1.66 3 2.32 3 3 C2.34 3 1.68 3 1 3 C0.835 3.86625 0.67 4.7325 0.5 5.625 C-2.98896151 13.47516339 -11.63529975 16.47365747 -19.046875 19.8984375 C-22 21 -22 21 -26 21 C-26 21.66 -26 22.32 -26 23 C-42.68209303 27.07057608 -55.14363959 27.08482413 -72 24 C-72 23.34 -72 22.68 -72 22 C-72.69867188 21.95101563 -73.39734375 21.90203125 -74.1171875 21.8515625 C-75.02726563 21.77679688 -75.93734375 21.70203125 -76.875 21.625 C-77.77992188 21.55539062 -78.68484375 21.48578125 -79.6171875 21.4140625 C-82 21 -82 21 -84 19 C-79.31623547 17.5483069 -75.63196857 18.69617974 -71.0625 19.9375 C-56.90273365 23.41340022 -40.84419526 24.07485164 -27 19 C-25.97648437 18.63648438 -24.95296875 18.27296875 -23.8984375 17.8984375 C-13.61878371 13.9447245 -6.89909475 8.49451041 0 0 Z " fill="#040404" transform="translate(316,386)"/>
<path d="M0 0 C1.32 0.66 2.64 1.32 4 2 C-1 7 -1 7 -3.25 9.125 C-5.22443723 10.97977175 -5.22443723 10.97977175 -6 14 C-6.763125 14.45375 -7.52625 14.9075 -8.3125 15.375 C-11.31415771 17.18995582 -12.8556298 19.2640794 -15 22 C-15.66 22 -16.32 22 -17 22 C-17.33 23.32 -17.66 24.64 -18 26 C-18.66 26 -19.32 26 -20 26 C-20.24878906 26.85722656 -20.49757813 27.71445313 -20.75390625 28.59765625 C-22.09361218 32.25559939 -23.8289992 35.16677157 -25.9375 38.4375 C-28.12760004 41.83931894 -30.10911598 45.10406224 -31.62890625 48.84765625 C-33 52 -33 52 -35 53 C-36.77896393 55.93005823 -37.39144134 58.65292738 -38 62 C-38.64216797 64.67321085 -39.32256124 67.33540756 -40 70 C-40.33 69.01 -40.66 68.02 -41 67 C-41.66 67 -42.32 67 -43 67 C-36.48600216 40.63381827 -19.12180658 18.5684424 0 0 Z " fill="#040404" transform="translate(73,54)"/>
<path d="M0 0 C4.81938524 -0.23509196 8.46298506 0.54815522 13 2 C13 2.66 13 3.32 13 4 C16.63 4.66 20.26 5.32 24 6 C24 6.66 24 7.32 24 8 C26.97 8 29.94 8 33 8 C33 8.66 33 9.32 33 10 C33.64066406 10.06058594 34.28132813 10.12117188 34.94140625 10.18359375 C39.98423313 10.67209412 44.9912102 11.23779286 50 12 C50 12.66 50 13.32 50 14 C50.66 13.67 51.32 13.34 52 13 C55.57280935 12.94082303 59.13105677 12.97912847 62.703125 13.0390625 C63.44820313 13.04679687 64.19328125 13.05453125 64.9609375 13.0625 C65.63946777 13.07410156 66.31799805 13.08570313 67.01708984 13.09765625 C69.12433209 12.99387677 70.97458741 12.57497044 73 12 C73 12.66 73 13.32 73 14 C74.010625 13.54625 75.02125 13.0925 76.0625 12.625 C82.41891529 10.19967699 89.28190265 9.74353942 96 9 C96 9.99 96 10.98 96 12 C62.47297088 19.89700791 31.60250755 15.06580251 0 2 C0 1.34 0 0.68 0 0 Z " fill="#040404" transform="translate(202,420)"/>
<path d="M0 0 C1.03125 0.78375 2.0625 1.5675 3.125 2.375 C4.74906483 3.58458995 6.37419835 4.7927455 8 6 C9.423125 7.07314453 9.423125 7.07314453 10.875 8.16796875 C26.17004169 19.523235 42.85037421 28.77438763 60 37 C62.00194931 37.99609185 64.00223712 38.99553822 66 40 C66.78375 40.391875 67.5675 40.78375 68.375 41.1875 C68.91125 41.455625 69.4475 41.72375 70 42 C69.505 42.99 69.505 42.99 69 44 C63.37291978 43.27392513 57.04737798 41.04737798 53 37 C51.03511169 36.11221308 51.03511169 36.11221308 48.875 35.375 C48.15054688 35.11460937 47.42609375 34.85421875 46.6796875 34.5859375 C45.84824219 34.29589844 45.84824219 34.29589844 45 34 C45 33.34 45 32.68 45 32 C44.26652344 31.8865625 43.53304687 31.773125 42.77734375 31.65625 C39.92953242 30.98334943 38.04355071 30.0213573 35.5625 28.5 C32.02844446 26.44930222 29.13694193 25.3182263 25 25 C25.33 24.34 25.66 23.68 26 23 C24.35 22.34 22.7 21.68 21 21 C21 20.34 21 19.68 21 19 C19.68 18.34 18.36 17.68 17 17 C17 16.34 17 15.68 17 15 C15.68 14.67 14.36 14.34 13 14 C13 13.34 13 12.68 13 12 C12.4225 11.87625 11.845 11.7525 11.25 11.625 C8.97664233 10.99351176 7.0746471 10.11141809 5 9 C5 8.34 5 7.68 5 7 C3.68 6.67 2.36 6.34 1 6 C0.67 4.02 0.34 2.04 0 0 Z " fill="#040506" transform="translate(99,285)"/>
<path d="M0 0 C1.28613054 4.48239369 1.60306027 8.55351159 0 13 C-2.50137763 15.33431258 -5.38054317 16.53005187 -8.5 17.875 C-10.23278289 18.69553143 -11.96188612 19.52387208 -13.6875 20.359375 C-14.56921875 20.78283203 -15.4509375 21.20628906 -16.359375 21.64257812 C-21.37853801 24.2226952 -26.00085036 27.41717222 -30.65429688 30.59716797 C-35.70739768 34 -35.70739768 34 -39 34 C-39 33.34 -39 32.68 -39 32 C-37.35 31.34 -35.7 30.68 -34 30 C-34 29.34 -34 28.68 -34 28 C-32.865625 27.731875 -31.73125 27.46375 -30.5625 27.1875 C-29.386875 26.795625 -28.21125 26.40375 -27 26 C-26.67 25.01 -26.34 24.02 -26 23 C-25.34 23 -24.68 23 -24 23 C-24 22.34 -24 21.68 -24 21 C-22.16666667 20.08333333 -20.33333333 19.16666667 -18.5 18.25 C-17.41074219 17.69570312 -16.32148438 17.14140625 -15.19921875 16.5703125 C-12 15 -12 15 -9.45703125 13.9921875 C-7.02892044 13.08728095 -7.02892044 13.08728095 -4 11 C-3.3862777 9.0296585 -3.3862777 9.0296585 -3.29296875 6.8671875 C-3.19628906 5.59101562 -3.09960938 4.31484375 -3 3 C-4.19496094 3.144375 -5.38992187 3.28875 -6.62109375 3.4375 C-8.22653089 3.62527043 -9.83200148 3.8127551 -11.4375 4 C-12.22060547 4.09539062 -13.00371094 4.19078125 -13.81054688 4.2890625 C-19.24375619 4.91511131 -24.53074263 5.08759571 -30 5 C-26.24308449 3.00036806 -22.53546985 2.13564665 -18.375 1.375 C-17.66730469 1.24311279 -16.95960938 1.11122559 -16.23046875 0.9753418 C-10.78936609 0.01707838 -5.52637901 -0.35868325 0 0 Z " fill="#0B2E6B" transform="translate(182,66)"/>
<path d="M0 0 C0.66 0.33 1.32 0.66 2 1 C2.02540625 8.56224854 2.04289056 16.12448603 2.05493164 23.68676758 C2.05995275 26.25806083 2.06677092 28.82935123 2.07543945 31.40063477 C2.08760235 35.10173241 2.09325063 38.80279223 2.09765625 42.50390625 C2.10281754 43.64896133 2.10797882 44.79401642 2.11329651 45.97377014 C2.11367762 51.4261185 1.97528162 56.63088905 1 62 C0.01 62 -0.98 62 -2 62 C-2.04632731 54.35919871 -2.08187121 46.71841197 -2.10362434 39.07750225 C-2.11406444 35.52956369 -2.12822763 31.98172117 -2.15087891 28.43383789 C-2.17675331 24.35562209 -2.1864709 20.27750729 -2.1953125 16.19921875 C-2.20563507 14.92414963 -2.21595764 13.64908051 -2.22659302 12.33537292 C-2.22674408 11.15437515 -2.22689514 9.97337738 -2.22705078 8.7565918 C-2.231492 7.71512497 -2.23593323 6.67365814 -2.24050903 5.60063171 C-2 3 -2 3 0 0 Z " fill="#060709" transform="translate(155,205)"/>
<path d="M0 0 C0.66 0 1.32 0 2 0 C2 0.66 2 1.32 2 2 C15.16549634 6.38849878 28.9751914 6.15021015 42.70703125 6.09765625 C44.16818696 6.09578536 45.62934331 6.09436464 47.09049988 6.09336853 C50.88959563 6.08959613 54.68865162 6.07981262 58.48773193 6.06866455 C62.38309186 6.05833529 66.27845838 6.05384654 70.17382812 6.04882812 C77.78256998 6.0381842 85.39127937 6.02117334 93 6 C93 6.33 93 6.66 93 7 C90.36 7 87.72 7 85 7 C85 7.66 85 8.32 85 9 C76.21080618 9.06988883 67.42170983 9.12300682 58.63229752 9.15543652 C54.54984892 9.17101078 50.46759215 9.1920959 46.38525391 9.22631836 C42.43651222 9.25920907 38.48795362 9.27691475 34.53908539 9.28463173 C33.04178745 9.29012248 31.54449812 9.30084251 30.04727936 9.31719017 C20.01021499 9.42230045 8.82037991 9.52518487 0 4 C-0.33 3.01 -0.66 2.02 -1 1 C-0.67 0.67 -0.34 0.34 0 0 Z " fill="#040404" transform="translate(41,396)"/>
<path d="M0 0 C1.44629938 0.20001643 2.89795703 0.36281541 4.3515625 0.5 C5.62966797 0.62375 5.62966797 0.62375 6.93359375 0.75 C8.26583984 0.87375 8.26583984 0.87375 9.625 1 C13.08367328 1.32988836 16.54205969 1.66251135 20 2 C20.85303711 2.0825 21.70607422 2.165 22.58496094 2.25 C23.3896582 2.3325 24.19435547 2.415 25.0234375 2.5 C25.74192871 2.5721875 26.46041992 2.644375 27.20068359 2.71875 C29 3 29 3 31 4 C30.67 4.66 30.34 5.32 30 6 C32.97 6.495 32.97 6.495 36 7 C36.495 8.485 36.495 8.485 37 10 C31.19331786 9.2751086 25.69461139 7.9723208 20.04882812 6.4609375 C11.03741344 4.11849411 2.40154877 3.83857291 -6.875 3.875 C-8.0606958 3.87693359 -9.2463916 3.87886719 -10.46801758 3.88085938 C-20.00495608 3.92734638 -29.48983658 4.30383117 -39 5 C-39.33 4.34 -39.66 3.68 -40 3 C-31.66420218 1.47679763 -23.38420125 0.46379974 -14.9375 -0.1875 C-13.82439453 -0.28224609 -12.71128906 -0.37699219 -11.56445312 -0.47460938 C-9.96827148 -0.60125977 -9.96827148 -0.60125977 -8.33984375 -0.73046875 C-6.90692993 -0.84491333 -6.90692993 -0.84491333 -5.44506836 -0.96166992 C-3 -1 -3 -1 0 0 Z " fill="#050506" transform="translate(198,39)"/>
<path d="M0 0 C0.99 0.66 1.98 1.32 3 2 C2.15179688 2.44988281 1.30359375 2.89976563 0.4296875 3.36328125 C-16.49264771 12.55066658 -32.95291211 25.38685134 -43.88671875 41.44921875 C-45.10980193 43.15295216 -46.48465383 44.5545257 -48 46 C-49 43 -49 43 -48.0625 40.8125 C-47.711875 40.214375 -47.36125 39.61625 -47 39 C-46.34 39 -45.68 39 -45 39 C-44.5359375 38.071875 -44.5359375 38.071875 -44.0625 37.125 C-43.375 35.75 -42.6875 34.375 -42 33 C-41.34 33 -40.68 33 -40 33 C-39.34 31.68 -38.68 30.36 -38 29 C-37.34 29 -36.68 29 -36 29 C-35.67 27.68 -35.34 26.36 -35 25 C-34.34 25 -33.68 25 -33 25 C-32.34 23.68 -31.68 22.36 -31 21 C-30.34 21.33 -29.68 21.66 -29 22 C-28.814375 21.2575 -28.62875 20.515 -28.4375 19.75 C-26.39596706 15.84445872 -23.86824904 15.03962222 -20 13 C-19.67 12.34 -19.34 11.68 -19 11 C-18.01 11 -17.02 11 -16 11 C-16 10.34 -16 9.68 -16 9 C-15.01 9 -14.02 9 -13 9 C-12.95617187 8.39929687 -12.91234375 7.79859375 -12.8671875 7.1796875 C-12 5 -12 5 -9.3828125 3.4453125 C-8.30773437 3.00960937 -7.23265625 2.57390625 -6.125 2.125 C-5.05507812 1.67382812 -3.98515625 1.22265625 -2.8828125 0.7578125 C-1.93148437 0.50773437 -0.98015625 0.25765625 0 0 Z " fill="#040507" transform="translate(125,53)"/>
<path d="M0 0 C0.99 0.33 1.98 0.66 3 1 C3 11.23 3 21.46 3 32 C9.62510029 28.68744986 13.00237261 22.6613942 16 16 C16.99 16 17.98 16 19 16 C15.95208137 24.26225002 10.91922596 32.46461923 4 38 C2.68 37.67 1.36 37.34 0 37 C0 24.79 0 12.58 0 0 Z " fill="#092C70" transform="translate(258,243)"/>
<path d="M0 0 C-0.33 0.66 -0.66 1.32 -1 2 C-1.92941406 1.83628906 -2.85882813 1.67257812 -3.81640625 1.50390625 C-8.84729229 0.78520824 -13.86616509 0.89243687 -18.9375 0.9375 C-20.3925293 0.94426758 -20.3925293 0.94426758 -21.87695312 0.95117188 C-24.2513676 0.9628685 -26.62565021 0.97925914 -29 1 C-29 1.66 -29 2.32 -29 3 C-29.66 3.66 -30.32 4.32 -31 5 C-31 5.66 -31 6.32 -31 7 C-32.32 7.33 -33.64 7.66 -35 8 C-35 7.34 -35 6.68 -35 6 C-35.66 6 -36.32 6 -37 6 C-37.268125 6.763125 -37.53625 7.52625 -37.8125 8.3125 C-39.34914471 11.7901696 -40.72670093 13.46561024 -44.26171875 14.94921875 C-45.46248047 15.31466797 -45.46248047 15.31466797 -46.6875 15.6875 C-47.49574219 15.93886719 -48.30398438 16.19023437 -49.13671875 16.44921875 C-49.75160156 16.63097656 -50.36648438 16.81273437 -51 17 C-51.33 16.01 -51.66 15.02 -52 14 C-51.37351562 13.84144531 -50.74703125 13.68289063 -50.1015625 13.51953125 C-47.6354936 12.81549581 -45.32834473 12.07825559 -43 11 C-41.66096786 8.65245602 -41.66096786 8.65245602 -41 6 C-31.76149645 -6.21866598 -12.85174341 -5.08021857 0 0 Z " fill="#050505" transform="translate(331,344)"/>
<path d="M0 0 C0.33 0 0.66 0 1 0 C1 11.88 1 23.76 1 36 C1.66 36 2.32 36 3 36 C3.42067939 49.06443223 2.15151581 61.99950897 1 75 C0.34 75 -0.32 75 -1 75 C-1.66 75.99 -2.32 76.98 -3 78 C-3.11786992 70.85508109 -2.80144228 63.90542938 -2.0390625 56.8046875 C-0.86467688 44.9153582 -0.56222292 33.06436155 -0.375 21.125 C-0.33666072 19.05727813 -0.29760094 16.98956949 -0.2578125 14.921875 C-0.16362263 9.9480289 -0.0789949 4.97410966 0 0 Z " fill="#092155" transform="translate(262,165)"/>
<path d="M0 0 C0.66 0 1.32 0 2 0 C2 0.66 2 1.32 2 2 C2.556875 2.061875 3.11375 2.12375 3.6875 2.1875 C6 3 6 3 8.3125 5.375 C11.34325859 8.33527583 14.10940891 9.41494437 18 11 C20.49292848 12.82814755 20.91187768 13.65552182 21.6875 16.6875 C21.790625 17.450625 21.89375 18.21375 22 19 C22.66 19 23.32 19 24 19 C24 19.66 24 20.32 24 21 C25.65 21.33 27.3 21.66 29 22 C29.33 22.99 29.66 23.98 30 25 C30.66 25.33 31.32 25.66 32 26 C32 26.99 32 27.98 32 29 C32.66 29 33.32 29 34 29 C34.0825 29.61875 34.165 30.2375 34.25 30.875 C34.4975 31.57625 34.745 32.2775 35 33 C35.66 33.28875 36.32 33.5775 37 33.875 C37.66 34.24625 38.32 34.6175 39 35 C39.75 38.125 39.75 38.125 40 41 C36.02056456 39.67352152 35.18247056 37.77549456 32.75 34.375 C23.38768091 21.7882551 12.31867695 11.28767588 -1 3 C-0.67 2.01 -0.34 1.02 0 0 Z " fill="#050608" transform="translate(254,57)"/>
<path d="M0 0 C0.99 0.33 1.98 0.66 3 1 C2.46890625 2.10214844 1.9378125 3.20429688 1.390625 4.33984375 C-8.29628472 24.8996285 -9.74449632 43.58836265 -10 66 C-10.33 66 -10.66 66 -11 66 C-11 58.41 -11 50.82 -11 43 C-11.66 43 -12.32 43 -13 43 C-13.63059314 34.25927848 -11.92719736 27.20469917 -9 19 C-8.74992187 18.2575 -8.49984375 17.515 -8.2421875 16.75 C-3.64479814 3.64479814 -3.64479814 3.64479814 0 0 Z " fill="#0B326E" transform="translate(115,126)"/>
<path d="M0 0 C1.32 0 2.64 0 4 0 C4.09796875 0.69867188 4.1959375 1.39734375 4.296875 2.1171875 C4.44640625 3.02726562 4.5959375 3.93734375 4.75 4.875 C4.88921875 5.77992187 5.0284375 6.68484375 5.171875 7.6171875 C5.75910897 10.15513056 5.75910897 10.15513056 8 11.125 C8.99 11.558125 8.99 11.558125 10 12 C11.25 15.125 11.25 15.125 12 18 C11.01 18 10.02 18 9 18 C8.67 16.35 8.34 14.7 8 13 C6.68 13 5.36 13 4 13 C3.67 13 3.34 13 3 13 C2.98018066 13.98395752 2.96036133 14.96791504 2.93994141 15.98168945 C2.86386013 19.63282839 2.775147 23.28357009 2.68261719 26.93432617 C2.64433779 28.51432451 2.60948303 30.09440969 2.578125 31.67456055 C2.53245124 33.94611645 2.47446216 36.21707509 2.4140625 38.48828125 C2.40251129 39.19463211 2.39096008 39.90098297 2.37905884 40.6287384 C2.26928952 44.27741393 2.07857636 45.88213546 0 49 C0 32.83 0 16.66 0 0 Z " fill="#050A13" transform="translate(202,67)"/>
<path d="M0 0 C0.33 0.99 0.66 1.98 1 3 C1.66 3 2.32 3 3 3 C13.01453743 34.80259461 13.01453743 34.80259461 11 44 C10.67 44 10.34 44 10 44 C9.814375 42.576875 9.814375 42.576875 9.625 41.125 C9.28312823 37.91332809 9.28312823 37.91332809 7 36 C6.48766904 33.59826352 6.0641232 31.23555623 5.6875 28.8125 C4.28295396 20.52983715 1.84711906 12.89614674 -1 5 C-1.33 4.01 -1.66 3.02 -2 2 C-1.34 2 -0.68 2 0 2 C0 1.34 0 0.68 0 0 Z " fill="#040507" transform="translate(306,118)"/>
<path d="M0 0 C7.26 0 14.52 0 22 0 C22 0.66 22 1.32 22 2 C23.093125 1.79375 24.18625 1.5875 25.3125 1.375 C29 1 29 1 32 3 C34.64017635 3.81779841 37.30270591 4.3809489 40 5 C40 5.66 40 6.32 40 7 C41.98 7 43.96 7 46 7 C46 7.66 46 8.32 46 9 C46.99 9 47.98 9 49 9 C48.67 9.99 48.34 10.98 48 12 C46.2675 11.4121875 46.2675 11.4121875 44.5 10.8125 C43.25089844 10.40451172 43.25089844 10.40451172 41.9765625 9.98828125 C39.85760409 9.28474256 37.74906363 8.54948795 35.6484375 7.79296875 C23.97318182 3.79244118 12.24334666 2.29224597 0 1 C0 0.67 0 0.34 0 0 Z " fill="#050505" transform="translate(135,402)"/>
<path d="M0 0 C4.61156279 0.56592976 4.61156279 0.56592976 6.36328125 2.5234375 C9 7.66666667 9 7.66666667 9 11 C9.66 11 10.32 11 11 11 C11.84686259 13.35004369 12.67750196 15.7039313 13.5 18.0625 C13.73847656 18.71927734 13.97695313 19.37605469 14.22265625 20.05273438 C15.75095075 24.48478841 16.41847735 28.25144449 16 33 C15.34 33.99 14.68 34.98 14 36 C13.76925781 35.04480469 13.53851563 34.08960938 13.30078125 33.10546875 C11.2713196 24.96118311 8.79607124 17.52394959 5 10 C4.52820313 9.04351562 4.05640625 8.08703125 3.5703125 7.1015625 C2.39323682 4.72746071 1.20345035 2.36081111 0 0 Z " fill="#092D6E" transform="translate(246,120)"/>
<path d="M0 0 C2.64 0.66 5.28 1.32 8 2 C8 2.66 8 3.32 8 4 C8.8971875 3.690625 8.8971875 3.690625 9.8125 3.375 C12 3 12 3 15 5 C16.98799818 5.70164642 18.98698517 6.37372872 21 7 C21 7.66 21 8.32 21 9 C22.17369141 9.18175781 22.17369141 9.18175781 23.37109375 9.3671875 C24.38300781 9.53476562 25.39492187 9.70234375 26.4375 9.875 C27.95150391 10.11863281 27.95150391 10.11863281 29.49609375 10.3671875 C30.32238281 10.57601563 31.14867187 10.78484375 32 11 C32.495 11.99 32.495 11.99 33 13 C34.97888961 13.72693904 36.97954558 14.39816251 39 15 C38.67 15.66 38.34 16.32 38 17 C32.38289466 16.37892169 27.60844253 14.39428794 22.4375 12.25 C20.66043458 11.52535873 18.88309005 10.80140158 17.10546875 10.078125 C16.23970215 9.72427734 15.37393555 9.37042969 14.48193359 9.00585938 C9.351311 6.92655925 4.17551345 4.96442846 -1 3 C-0.67 2.01 -0.34 1.02 0 0 Z " fill="#040404" transform="translate(179,363)"/>
<path d="M0 0 C0.66 0 1.32 0 2 0 C2.33 0.99 2.66 1.98 3 3 C3.99 3.33 4.98 3.66 6 4 C6 4.66 6 5.32 6 6 C7.32 6 8.64 6 10 6 C10 7.32 10 8.64 10 10 C10.66 10 11.32 10 12 10 C12 10.66 12 11.32 12 12 C12.66 12 13.32 12 14 12 C14.99 13.485 14.99 13.485 16 15 C16.825 15.268125 17.65 15.53625 18.5 15.8125 C19.325 16.204375 20.15 16.59625 21 17 C21.70381157 18.98723268 22.3711811 20.98777953 23 23 C24.31647119 23.69937532 25.65022151 24.36729133 27 25 C28.25 27.625 28.25 27.625 29 30 C28.34 30.33 27.68 30.66 27 31 C26.55269531 30.46890625 26.10539062 29.9378125 25.64453125 29.390625 C22.31072852 25.49526489 19.03743836 22.18101204 15 19 C15 18.34 15 17.68 15 17 C14.01 16.67 13.02 16.34 12 16 C12 15.34 12 14.68 12 14 C11.01 13.67 10.02 13.34 9 13 C5 8.54285714 5 8.54285714 5 6 C4.360625 5.7525 3.72125 5.505 3.0625 5.25 C1 4 1 4 0.25 1.875 C0.1675 1.25625 0.085 0.6375 0 0 Z " fill="#1D497E" transform="translate(218,89)"/>
<path d="M0 0 C0.99 0.33 1.98 0.66 3 1 C3.82536345 6.71905383 4.12753701 12.2267149 4.0625 18 C4.05798828 18.77472656 4.05347656 19.54945313 4.04882812 20.34765625 C4.03719758 22.23180524 4.01926906 24.11591365 4 26 C5.32 26.66 6.64 27.32 8 28 C7.34 28.33 6.68 28.66 6 29 C5.27840576 30.64363134 4.60648579 32.31050386 4 34 C3.34 34 2.68 34 2 34 C1.67 34.66 1.34 35.32 1 36 C0.97494385 35.10168457 0.9498877 34.20336914 0.92407227 33.27783203 C0.82901307 29.94925131 0.72977579 26.62085006 0.62768555 23.29248047 C0.58433769 21.8511238 0.54266248 20.40971582 0.50268555 18.96826172 C0.44497912 16.89795459 0.38128629 14.82790568 0.31640625 12.7578125 C0.27974854 11.5114502 0.24309082 10.26508789 0.20532227 8.98095703 C0.19710521 6.07363058 0.19710521 6.07363058 -1 4 C-0.5625 1.875 -0.5625 1.875 0 0 Z " fill="#124A9F" transform="translate(260,239)"/>
<path d="M0 0 C6.16618181 -0.40214229 11.17745757 1.03181664 17 3 C16.67 3.99 16.34 4.98 16 6 C15.01 6 14.02 6 13 6 C13 6.66 13 7.32 13 8 C10.61435923 7.42415568 8.33317216 6.77772405 6 6 C6 7.98 6 9.96 6 12 C3.21882328 10.9802352 2.18166898 10.33608762 0.75 7.6875 C-0.00511726 4.98166314 -0.1595955 2.79292118 0 0 Z " fill="#17509C" transform="translate(206,67)"/>
<path d="M0 0 C-0.36008152 2.56583607 -0.62742263 3.70054378 -2.68310547 5.3527832 C-3.40385254 5.74812256 -4.12459961 6.14346191 -4.8671875 6.55078125 C-5.66600342 6.99897217 -6.46481934 7.44716309 -7.2878418 7.90893555 C-8.141604 8.37211182 -8.99536621 8.83528809 -9.875 9.3125 C-11.60909584 10.28202682 -13.34217352 11.25337702 -15.07421875 12.2265625 C-15.91774902 12.69739258 -16.7612793 13.16822266 -17.63037109 13.65332031 C-22.20342342 16.25222374 -26.60753914 19.10788532 -31 22 C-31.33 21.01 -31.66 20.02 -32 19 C-30.35 18.34 -28.7 17.68 -27 17 C-27 16.34 -27 15.68 -27 15 C-25.2984375 14.5978125 -25.2984375 14.5978125 -23.5625 14.1875 C-22.386875 13.795625 -21.21125 13.40375 -20 13 C-19.67 12.01 -19.34 11.02 -19 10 C-18.34 10 -17.68 10 -17 10 C-17 9.34 -17 8.68 -17 8 C-16.16855469 7.59007813 -15.33710938 7.18015625 -14.48046875 6.7578125 C-13.39378906 6.21898438 -12.30710938 5.68015625 -11.1875 5.125 C-10.10855469 4.59132813 -9.02960938 4.05765625 -7.91796875 3.5078125 C-1.12953368 0 -1.12953368 0 0 0 Z " fill="#0D387B" transform="translate(175,79)"/>
<path d="M0 0 C4.09605442 1.52299926 8.18936277 3.05309769 12.28027344 4.58984375 C13.67244275 5.11166386 15.06534463 5.63153388 16.45898438 6.14941406 C18.46159338 6.89397382 20.4614666 7.64549775 22.4609375 8.3984375 C23.66540527 8.84880371 24.86987305 9.29916992 26.11083984 9.76318359 C29 11 29 11 31 13 C26.99799622 14.60080151 23.95443764 13.29279692 20 12 C20 11.34 20 10.68 20 10 C15.74440319 9.00606242 11.60572422 8.06057242 7.25 7.625 C3.50713598 6.90521846 1.7473567 5.58085024 -1 3 C-0.67 2.01 -0.34 1.02 0 0 Z " fill="#050505" transform="translate(178,383)"/>
<path d="M0 0 C0.99 0.33 1.98 0.66 3 1 C-0.02022425 4.08107125 -3.10525321 6.99910423 -6.35253906 9.84448242 C-12.20700012 15.00891319 -16.87724332 20.30777877 -21 27 C-21.66 25.68 -22.32 24.36 -23 23 C-21.1875 20 -21.1875 20 -19 17 C-18.01 17 -17.02 17 -16 17 C-15.75894531 16.25878906 -15.51789063 15.51757812 -15.26953125 14.75390625 C-13.82711928 11.62498183 -12.30514267 10.15039792 -9.6875 7.9375 C-8.88441406 7.256875 -8.08132812 6.57625 -7.25390625 5.875 C-6.51011719 5.25625 -5.76632813 4.6375 -5 4 C-3.576875 2.7315625 -3.576875 2.7315625 -2.125 1.4375 C-1.42375 0.963125 -0.7225 0.48875 0 0 Z " fill="#0C3670" transform="translate(140,100)"/>
<path d="M0 0 C0.71115967 0.16298584 1.42231934 0.32597168 2.1550293 0.49389648 C5.01560796 1.00277656 7.61719358 1.11387043 10.51953125 1.09765625 C12.0519043 1.09282227 12.0519043 1.09282227 13.61523438 1.08789062 C15.19788086 1.07532227 15.19788086 1.07532227 16.8125 1.0625 C18.42415039 1.05573242 18.42415039 1.05573242 20.06835938 1.04882812 C22.71229683 1.03707729 25.35611952 1.02064787 28 1 C28.33 1.99 28.66 2.98 29 4 C23.95885883 5.00984399 19.11744878 5.18327768 14 5.1875 C12.82824219 5.20586914 12.82824219 5.20586914 11.6328125 5.22460938 C7.01887656 5.23626073 3.34273329 4.76075564 -1 3 C-0.67 2.01 -0.34 1.02 0 0 Z " fill="#050505" transform="translate(249,359)"/>
<path d="M0 0 C1.11117187 0.45890625 2.22234375 0.9178125 3.3671875 1.390625 C4.08390625 1.68622314 4.800625 1.98182129 5.5390625 2.28637695 C7.09926834 2.92999447 8.65916337 3.57436591 10.21875 4.21948242 C15.22113324 6.28411572 20.24209494 8.28294423 25.3125 10.17578125 C27 11 27 11 28 13 C27.67 13.66 27.34 14.32 27 15 C26.154375 14.71125 25.30875 14.4225 24.4375 14.125 C20.97638959 12.99227296 17.50627443 11.98175684 14 11 C14 10.34 14 9.68 14 9 C11.36 8.67 8.72 8.34 6 8 C6 7.34 6 6.68 6 6 C3.69 5.01 1.38 4.02 -1 3 C-0.67 2.01 -0.34 1.02 0 0 Z " fill="#040404" transform="translate(170,328)"/>
<path d="M0 0 C6 2 6 2 7.98046875 2.6953125 C15.82611721 5.41056424 23.85086149 7.42370678 32 9 C30 11 30 11 28.03125 11.1875 C21.52648139 10.70566529 15.56199 9.16165437 9.375 7.1875 C8.16553711 6.8152832 8.16553711 6.8152832 6.93164062 6.43554688 C6.17818359 6.18224609 5.42472656 5.92894531 4.6484375 5.66796875 C3.96958496 5.44391357 3.29073242 5.2198584 2.59130859 4.98901367 C1 4 1 4 0.27197266 1.89575195 C0.18222168 1.27015381 0.0924707 0.64455566 0 0 Z " fill="#040404" transform="translate(222,379)"/>
<path d="M0 0 C2.79327161 1.39663581 2.99922754 3.01179059 4.1875 5.875 C6.50588616 11.21494651 9.39628717 15.83698533 12.7421875 20.58984375 C14 23 14 23 13.6953125 25.31640625 C13.46585938 25.87199219 13.23640625 26.42757813 13 27 C6.63983464 21.18277559 0.28918911 11.30180041 -0.1875 2.5625 C-0.125625 1.716875 -0.06375 0.87125 0 0 Z " fill="#030506" transform="translate(64,237)"/>
<path d="M0 0 C-2.71494932 2.71494932 -5.21472069 2.76631285 -8.90625 3.4375 C-11.1997607 3.8668085 -11.1997607 3.8668085 -13 6 C-14.27316774 6.5263529 -15.56826431 7.00109959 -16.875 7.4375 C-20.04690756 8.56375703 -22.36661987 9.87303912 -25 12 C-25.66 12 -26.32 12 -27 12 C-26.4609375 9.734375 -26.4609375 9.734375 -25 7 C-22.5113728 5.51964565 -20.26487894 4.36494887 -17.625 3.25 C-16.95210937 2.94707031 -16.27921875 2.64414063 -15.5859375 2.33203125 C-9.71905425 -0.26648988 -6.31640898 -1.29199275 0 0 Z " fill="#0E3572" transform="translate(154,72)"/>
<path d="M0 0 C5.79506751 3.06006466 11.52173062 6.22485095 17.125 9.625 C18.03507812 10.17414062 18.94515625 10.72328125 19.8828125 11.2890625 C22.20844417 13.1684475 22.68113641 14.07920956 23 17 C20.0625 16.1875 20.0625 16.1875 17 15 C16.67 14.01 16.34 13.02 16 12 C14.67696283 11.6278958 13.34262065 11.29369827 12 11 C11.67 10.34 11.34 9.68 11 9 C8.68895182 7.94952356 6.35416349 6.94992562 4 6 C3.34 5.67 2.68 5.34 2 5 C2 4.34 2 3.68 2 3 C1.01 3 0.02 3 -1 3 C-0.67 2.01 -0.34 1.02 0 0 Z " fill="#040404" transform="translate(262,29)"/>
<path d="M0 0 C0.99 0.33 1.98 0.66 3 1 C-0.67042979 4.96991457 -4.36890539 7.7171214 -9.0625 10.375 C-9.67416016 10.74238281 -10.28582031 11.10976563 -10.91601562 11.48828125 C-15.41449314 14.06578729 -15.41449314 14.06578729 -18.43359375 13.7265625 C-19.20896484 13.36691406 -19.20896484 13.36691406 -20 13 C-19.34 13 -18.68 13 -18 13 C-18 12.34 -18 11.68 -18 11 C-16.35546875 9.81640625 -16.35546875 9.81640625 -14.1875 8.5625 C-11.40578131 6.94616437 -9.18823319 5.36770973 -7 3 C-7 3.66 -7 4.32 -7 5 C-6.34 5 -5.68 5 -5 5 C-4.67 4.34 -4.34 3.68 -4 3 C-2.125 1.3125 -2.125 1.3125 0 0 Z " fill="#040404" transform="translate(331,411)"/>
<path d="M0 0 C0.33 0 0.66 0 1 0 C1.16987605 4.88865511 1.33014845 9.77750532 1.48217773 14.66674805 C1.53498691 16.32405714 1.59025379 17.98129007 1.64819336 19.63842773 C1.99178256 29.51885817 2.05650689 39.15212195 1 49 C0.67 49 0.34 49 0 49 C-2.56577327 32.97409872 -0.69448113 16.13560411 0 0 Z " fill="#0E3060" transform="translate(291,164)"/>
<path d="M0 0 C0 0.66 0 1.32 0 2 C19.14 2 38.28 2 58 2 C58 2.33 58 2.66 58 3 C49.82037612 3.04628728 41.64080673 3.08185072 33.46108437 3.10362434 C29.66313688 3.11407321 25.86527882 3.12825236 22.06738281 3.15087891 C18.40398654 3.17256821 14.74067643 3.18456031 11.07722092 3.18975449 C9.67773456 3.19345731 8.27825305 3.20068777 6.87880325 3.21146011 C4.92266669 3.22592225 2.96644391 3.22681647 1.01025391 3.22705078 C-0.66186661 3.23371262 -0.66186661 3.23371262 -2.36776733 3.24050903 C-5 3 -5 3 -7 1 C-4.50935112 0.31292445 -2.62113708 0 0 0 Z " fill="#000000" transform="translate(65,375)"/>
<path d="M0 0 C0.99 0 1.98 0 3 0 C4.4606285 2.64738916 5 3.89448334 5 7 C5.99 7 6.98 7 8 7 C8.66 9.64 9.32 12.28 10 15 C10.66 15 11.32 15 12 15 C12 16.32 12 17.64 12 19 C11.01 19.33 10.02 19.66 9 20 C7.48987869 17.23456804 5.99369852 14.46183193 4.5 11.6875 C4.07074219 10.90181641 3.64148438 10.11613281 3.19921875 9.30664062 C2.79316406 8.54931641 2.38710938 7.79199219 1.96875 7.01171875 C1.59169922 6.31522217 1.21464844 5.61872559 0.82617188 4.90112305 C0 3 0 3 0 0 Z " fill="#040608" transform="translate(294,98)"/>
<path d="M0 0 C0 0.99 0 1.98 0 3 C-1.10859375 3.33773437 -2.2171875 3.67546875 -3.359375 4.0234375 C-4.82297298 4.47377534 -6.28651155 4.92430633 -7.75 5.375 C-8.84441406 5.70757812 -8.84441406 5.70757812 -9.9609375 6.046875 C-12.88282853 6.95000495 -15.6346684 7.8173342 -18.375 9.1875 C-20 10 -20 10 -22.25 9.625 C-22.8275 9.41875 -23.405 9.2125 -24 9 C-24 8.34 -24 7.68 -24 7 C-21.27229834 6.01658385 -18.54297895 5.03814947 -15.8125 4.0625 C-15.04357422 3.78470703 -14.27464844 3.50691406 -13.48242188 3.22070312 C-4.44117093 0 -4.44117093 0 0 0 Z " fill="#040505" transform="translate(151,44)"/>
<path d="M0 0 C5.77449181 0.55906884 10.54913959 2.18319184 15.875 4.4375 C17.03128906 4.90639648 17.03128906 4.90639648 18.2109375 5.38476562 C23.87066165 7.7413233 23.87066165 7.7413233 25 10 C19.34687695 9.50411201 15.22034485 8.36392974 10 6 C7.22111387 5.30859478 7.22111387 5.30859478 5 5 C5 4.34 5 3.68 5 3 C3.35 2.67 1.7 2.34 0 2 C0 1.34 0 0.68 0 0 Z " fill="#030303" transform="translate(233,18)"/>
<path d="M0 0 C0.33 0.66 0.66 1.32 1 2 C-3.02962001 3.34320667 -6.90313581 3.44467806 -11.125 3.6875 C-11.94226563 3.74744141 -12.75953125 3.80738281 -13.6015625 3.86914062 C-19.38906693 4.20338732 -24.41675378 3.54417695 -30 2 C-30 1.67 -30 1.34 -30 1 C-9.46808511 -0.19148936 -9.46808511 -0.19148936 0 0 Z " fill="#040404" transform="translate(95,354)"/>
<path d="M0 0 C0.99 0 1.98 0 3 0 C4.94210433 7.47941368 6.39363688 14.25847464 6 22 C0.99454409 17.33644682 0.73162575 11.4801138 0 5 C-0.20625 4.195625 -0.4125 3.39125 -0.625 2.5625 C-0.74875 2.046875 -0.8725 1.53125 -1 1 C-0.67 0.67 -0.34 0.34 0 0 Z " fill="#050608" transform="translate(54,208)"/>
<path d="M0 0 C0.33 0.66 0.66 1.32 1 2 C1.66 2 2.32 2 3 2 C3.26425781 2.71800781 3.52851563 3.43601562 3.80078125 4.17578125 C5.41899789 7.9867605 7.62794969 11.31344834 9.85546875 14.79296875 C10.23316406 15.52128906 10.61085937 16.24960937 11 17 C10.67 17.66 10.34 18.32 10 19 C8.68445015 18.5504955 7.37261642 18.09010284 6.0625 17.625 C5.33160156 17.36976563 4.60070312 17.11453125 3.84765625 16.8515625 C2 16 2 16 1 14 C2.32 14 3.64 14 5 14 C5 13.34 5 12.68 5 12 C4.34 12 3.68 12 3 12 C2.49166409 10.75336669 1.99368855 9.50250613 1.5 8.25 C1.2215625 7.55390625 0.943125 6.8578125 0.65625 6.140625 C0 4 0 4 0 0 Z " fill="#19539B" transform="translate(167,289)"/>
<path d="M0 0 C6.50915235 -0.12517601 6.50915235 -0.12517601 8.9453125 0.49609375 C11.23535838 1.05772097 13.26975729 1.13287707 15.625 1.125 C16.40101563 1.12757813 17.17703125 1.13015625 17.9765625 1.1328125 C20.06959248 1.12673369 20.06959248 1.12673369 22 0 C22.33 1.32 22.66 2.64 23 4 C14.75363708 6.74878764 7.7485047 4.24423374 0 1 C0 0.67 0 0.34 0 0 Z " fill="#030303" transform="translate(244,338)"/>
<path d="M0 0 C-1 3 -1 3 -3.73046875 4.38671875 C-4.87128906 4.81597656 -6.01210938 5.24523437 -7.1875 5.6875 C-8.31542969 6.12449219 -9.44335938 6.56148438 -10.60546875 7.01171875 C-13.93641471 7.98148783 -16.55550462 8.19339352 -20 8 C-20 7.01 -20 6.02 -20 5 C-19.25234375 4.89042969 -18.5046875 4.78085937 -17.734375 4.66796875 C-16.74953125 4.50941406 -15.7646875 4.35085938 -14.75 4.1875 C-13.28820312 3.96126953 -13.28820312 3.96126953 -11.796875 3.73046875 C-6.98367052 2.47338881 -5.29484196 -0.44123683 0 0 Z " fill="#050505" transform="translate(297,382)"/>
<path d="M0 0 C0.99 0.33 1.98 0.66 3 1 C3.17977528 10.16853933 3.17977528 10.16853933 2 13 C-1.5625 14.8125 -1.5625 14.8125 -5 16 C-4.625 14.0625 -4.625 14.0625 -4 12 C-3.34 11.67 -2.68 11.34 -2 11 C-1.57014306 8.67646015 -1.57014306 8.67646015 -1.4375 6 C-1.09618321 1.09618321 -1.09618321 1.09618321 0 0 Z " fill="#092F6A" transform="translate(180,66)"/>
<path d="M0 0 C7.42857143 1 7.42857143 1 11 2 C11 2.66 11 3.32 11 4 C12.423125 4.185625 12.423125 4.185625 13.875 4.375 C17 5 17 5 19 7 C13.88661484 8.29777404 10.94949445 7.58091094 6.125 5.5625 C4.97257813 5.08941406 3.82015625 4.61632812 2.6328125 4.12890625 C1.76398438 3.75636719 0.89515625 3.38382812 0 3 C0 2.01 0 1.02 0 0 Z " fill="#040404" transform="translate(227,330)"/>
<path d="M0 0 C0.33 1.32 0.66 2.64 1 4 C1.66 4 2.32 4 3 4 C3 9.28 3 14.56 3 20 C2.34 20 1.68 20 1 20 C0.67 21.32 0.34 22.64 0 24 C0 16.08 0 8.16 0 0 Z " fill="#113F90" transform="translate(101,165)"/>
<path d="M0 0 C0.66 0 1.32 0 2 0 C1.34 4.29 0.68 8.58 0 13 C-0.66 13 -1.32 13 -2 13 C-2.33 15.97 -2.66 18.94 -3 22 C-3.66 22 -4.32 22 -5 22 C-5.02705729 20.22925083 -5.04642195 18.45838289 -5.0625 16.6875 C-5.07410156 15.70136719 -5.08570312 14.71523437 -5.09765625 13.69921875 C-5 11 -5 11 -4 8 C-2.68 8 -1.36 8 0 8 C0 5.36 0 2.72 0 0 Z " fill="#06296A" transform="translate(83,137)"/>
<path d="M0 0 C0.33 0 0.66 0 1 0 C1 11.22 1 22.44 1 34 C2.98 34 4.96 34 7 34 C6.01 35.32 5.02 36.64 4 38 C2.68 37.67 1.36 37.34 0 37 C0 24.79 0 12.58 0 0 Z " fill="#0A162D" transform="translate(258,243)"/>
<path d="M0 0 C4.38332057 0.82187261 8.67940177 1.90154282 13 3 C13 3.99 13 4.98 13 6 C13.66 6.66 14.32 7.32 15 8 C14.34 8.66 13.68 9.32 13 10 C8.71 7.69 4.42 5.38 0 3 C0 2.01 0 1.02 0 0 Z " fill="#040607" transform="translate(238,49)"/>
<path d="M0 0 C0.99 0 1.98 0 3 0 C3.09796875 0.69867188 3.1959375 1.39734375 3.296875 2.1171875 C3.44640625 3.02726562 3.5959375 3.93734375 3.75 4.875 C3.88921875 5.77992187 4.0284375 6.68484375 4.171875 7.6171875 C4.75910897 10.15513056 4.75910897 10.15513056 7 11.125 C7.99 11.558125 7.99 11.558125 9 12 C10.25 15.125 10.25 15.125 11 18 C10.01 18 9.02 18 8 18 C7.67 16.35 7.34 14.7 7 13 C5.68 13 4.36 13 3 13 C2.67 13 2.34 13 2 13 C2 10.69 2 8.38 2 6 C1.34 6 0.68 6 0 6 C0 4.02 0 2.04 0 0 Z " fill="#091324" transform="translate(203,67)"/>
<path d="M0 0 C0 0.66 0 1.32 0 2 C1.65 2.33 3.3 2.66 5 3 C5 3.66 5 4.32 5 5 C6.32 5.66 7.64 6.32 9 7 C4.72199024 8.42600325 2.13234078 6.45637064 -1.6875 4.5625 C-2.38939453 4.22412109 -3.09128906 3.88574219 -3.81445312 3.53710938 C-5.54723706 2.70018652 -7.27419752 1.85122607 -9 1 C-5.52452927 -0.94566951 -3.87493656 -1.07637127 0 0 Z " fill="#040404" transform="translate(159,352)"/>
<path d="M0 0 C0.66 0.99 1.32 1.98 2 3 C1.34 3 0.68 3 0 3 C0.185625 3.5775 0.37125 4.155 0.5625 4.75 C1.04023546 7.20692525 0.75729364 8.64397534 0 11 C-0.99 11 -1.98 11 -3 11 C-3 13.64 -3 16.28 -3 19 C-3.99 19 -4.98 19 -6 19 C-5.52877252 12.0886636 -2.79363994 6.27795839 0 0 Z " fill="#0A2554" transform="translate(86,126)"/>
<path d="M0 0 C3.02419525 0.58803797 6.01758453 1.22678118 9 2 C9 2.66 9 3.32 9 4 C11.64 4.66 14.28 5.32 17 6 C17 6.33 17 6.66 17 7 C12.27389104 8.66052477 9.4867999 7.56611389 5.125 5.5625 C3.40940954 4.7230044 1.69855235 3.87345486 0 3 C0 2.01 0 1.02 0 0 Z " fill="#030303" transform="translate(137,344)"/>
<path d="M0 0 C1.25541557 3.76624671 0.37061958 5.37188934 -1 9 C-1.66 9 -2.32 9 -3 9 C-3.28875 9.804375 -3.5775 10.60875 -3.875 11.4375 C-5 14 -5 14 -7 15 C-6.34 11.7 -5.68 8.4 -5 5 C-3.68 4.67 -2.36 4.34 -1 4 C-0.67 2.68 -0.34 1.36 0 0 Z " fill="#093373" transform="translate(93,117)"/>
<path d="M0 0 C0.66 0 1.32 0 2 0 C2.33 2.31 2.66 4.62 3 7 C0.34501768 8.0169313 -0.69155375 8.13022151 -3.359375 7.00390625 C-4.14828125 6.52824219 -4.9371875 6.05257813 -5.75 5.5625 C-6.54921875 5.08941406 -7.3484375 4.61632812 -8.171875 4.12890625 C-8.77515625 3.75636719 -9.3784375 3.38382812 -10 3 C-10 2.67 -10 2.34 -10 2 C-2.57142857 3 -2.57142857 3 1 4 C0.67 2.68 0.34 1.36 0 0 Z " fill="#0B3067" transform="translate(176,303)"/>
<path d="M0 0 C0.66 0 1.32 0 2 0 C1.40895235 4.84659077 0.02055843 8.60748167 -2 13 C-2.99 12.67 -3.98 12.34 -5 12 C-4.35550393 8.98782888 -3.34977818 6.48344164 -1.9375 3.75 C-1.57527344 3.04359375 -1.21304687 2.3371875 -0.83984375 1.609375 C-0.56269531 1.07828125 -0.28554688 0.5471875 0 0 Z " fill="#030303" transform="translate(331,261)"/>
<path d="M0 0 C0.99 0.33 1.98 0.66 3 1 C3.33 4.63 3.66 8.26 4 12 C3.01 12 2.02 12 1 12 C-1.83022097 8.00439392 -0.76210446 4.57262677 0 0 Z " fill="#0F4089" transform="translate(86,221)"/>
<path d="M0 0 C0.66 0 1.32 0 2 0 C1.34215037 3.29680965 0.10579427 5.84117922 -1.5625 8.75 C-2.01753906 9.54921875 -2.47257812 10.3484375 -2.94140625 11.171875 C-3.29074219 11.77515625 -3.64007813 12.3784375 -4 13 C-4.33 12.01 -4.66 11.02 -5 10 C-5.66 9.67 -6.32 9.34 -7 9 C-5.7260411 6.96166576 -4.38938077 4.96147874 -3 3 C-2.34 3 -1.68 3 -1 3 C-0.67 2.01 -0.34 1.02 0 0 Z " fill="#040405" transform="translate(322,281)"/>
<path d="M0 0 C4.77609498 1.64178265 8.79382904 4.26546702 13 7 C12.34 7.66 11.68 8.32 11 9 C9.34579778 8.46260944 7.70166705 7.89413992 6.0625 7.3125 C5.14597656 6.99925781 4.22945313 6.68601562 3.28515625 6.36328125 C1 5 1 5 0.18359375 2.35546875 C0.12300781 1.57816406 0.06242187 0.80085938 0 0 Z " fill="#050505" transform="translate(82,337)"/>
<path d="M0 0 C6.16618181 -0.40214229 11.17745757 1.03181664 17 3 C17 3.33 17 3.66 17 4 C14.9163691 3.85848172 12.83310062 3.71162064 10.75 3.5625 C9.58984375 3.48128906 8.4296875 3.40007812 7.234375 3.31640625 C4.69022624 3.06752213 2.44046752 2.71885058 0 2 C0 1.34 0 0.68 0 0 Z " fill="#0B2F6F" transform="translate(206,67)"/>
<path d="M0 0 C0.33 0 0.66 0 1 0 C1.66755991 3.92191445 2.11976413 7.77129411 2.25 11.75 C2.27578125 12.48734375 2.3015625 13.2246875 2.328125 13.984375 C1.91475847 16.52362657 0.94286865 17.38435133 -1 19 C-1.10655578 12.55929529 -0.96205088 6.37358711 0 0 Z " fill="#062154" transform="translate(260,224)"/>
<path d="M0 0 C0.99 0.33 1.98 0.66 3 1 C3 1.66 3 2.32 3 3 C3.61875 3.226875 4.2375 3.45375 4.875 3.6875 C7.61410209 5.37929835 8.05024472 6.99244161 9 10 C8.01 10.495 8.01 10.495 7 11 C5.82439821 9.73742767 4.65977135 8.46462916 3.5 7.1875 C2.8503125 6.47980469 2.200625 5.77210937 1.53125 5.04296875 C0 3 0 3 0 0 Z " fill="#072D65" transform="translate(238,109)"/>
<path d="M0 0 C0.33 0 0.66 0 1 0 C1.09706112 6.11485027 0.77040851 11.93303301 0 18 C-0.33 18 -0.66 18 -1 18 C-1.22119939 15.37549914 -1.42746669 12.75129514 -1.625 10.125 C-1.68945312 9.37863281 -1.75390625 8.63226563 -1.8203125 7.86328125 C-1.96087365 5.9129953 -1.98759849 3.95530533 -2 2 C-1.34 1.34 -0.68 0.68 0 0 Z " fill="#0C3889" transform="translate(263,222)"/>
<path d="M0 0 C0 0.66 0 1.32 0 2 C-2.31 2.33 -4.62 2.66 -7 3 C-7 3.33 -7 3.66 -7 4 C-9.64 4 -12.28 4 -15 4 C-15.33 3.34 -15.66 2.68 -16 2 C-14.08404518 1.66259915 -12.16720278 1.33023588 -10.25 1 C-9.18265625 0.814375 -8.1153125 0.62875 -7.015625 0.4375 C-4 0 -4 0 0 0 Z " fill="#020304" transform="translate(174,40)"/>
<path d="M0 0 C5.39844578 0.34828682 5.39844578 0.34828682 8 1 C9.5625 2.9375 9.5625 2.9375 10 5 C9.67 5.66 9.34 6.32 9 7 C5.9168649 5.80100302 2.93720508 4.52299523 0 3 C0 2.01 0 1.02 0 0 Z " fill="#040505" transform="translate(111,330)"/>
<path d="M0 0 C0.33 0.66 0.66 1.32 1 2 C1.66 2 2.32 2 3 2 C4.33333333 5.33333333 5.66666667 8.66666667 7 12 C5.68 12 4.36 12 3 12 C2.49166409 10.75336669 1.99368855 9.50250613 1.5 8.25 C1.2215625 7.55390625 0.943125 6.8578125 0.65625 6.140625 C0 4 0 4 0 0 Z " fill="#21528D" transform="translate(167,289)"/>
<path d="M0 0 C0.66 0 1.32 0 2 0 C2 0.66 2 1.32 2 2 C2.99 2 3.98 2 5 2 C5 3.98 5 5.96 5 8 C3.68 8.33 2.36 8.66 1 9 C-0.4783226 6.04335481 -0.06032783 3.25770263 0 0 Z " fill="#07142F" transform="translate(178,303)"/>
<path d="M0 0 C0.33 0 0.66 0 1 0 C1.33 3.3 1.66 6.6 2 10 C2.66 10 3.32 10 4 10 C4 11.32 4 12.64 4 14 C3.34 14 2.68 14 2 14 C0 11 0 11 0 8 C-0.66 8 -1.32 8 -2 8 C-1.33333333 5.33333333 -0.66666667 2.66666667 0 0 Z " fill="#061024" transform="translate(156,261)"/>
<path d="M0 0 C5.4611399 0.35233161 5.4611399 0.35233161 8 1 C9.5 3.0625 9.5 3.0625 10 5 C8.1875 5.625 8.1875 5.625 6 6 C5.01 5.34 4.02 4.68 3 4 C3 3.34 3 2.68 3 2 C2.01 1.67 1.02 1.34 0 1 C0 0.67 0 0.34 0 0 Z " fill="#103C7D" transform="translate(230,104)"/>
<path d="M0 0 C3.40312738 1.05875074 6.01353231 2.00902154 9 4 C8.67 4.99 8.34 5.98 8 7 C5.36 5.68 2.72 4.36 0 3 C0 2.01 0 1.02 0 0 Z " fill="#030303" transform="translate(101,324)"/>
<path d="M0 0 C0.33 0 0.66 0 1 0 C0.03644647 9.41002278 0.03644647 9.41002278 -1 14 C-1.33 14 -1.66 14 -2 14 C-2.33 10.37 -2.66 6.74 -3 3 C-2.01 3 -1.02 3 0 3 C0 2.01 0 1.02 0 0 Z " fill="#092D65" transform="translate(288,224)"/>
<path d="M0 0 C0.33 0.66 0.66 1.32 1 2 C0.34 2 -0.32 2 -1 2 C-1 2.66 -1 3.32 -1 4 C-4.08225674 7.34645017 -7.40147125 10.2239921 -11 13 C-9.60846256 8.57238086 -7.47928514 6.0443745 -4 3 C-3.34 3 -2.68 3 -2 3 C-2 2.34 -2 1.68 -2 1 C-1.34 0.67 -0.68 0.34 0 0 Z " fill="#020306" transform="translate(151,124)"/>
<path d="M0 0 C3 1 3 1 6 3 C5.36191406 3.13277344 4.72382813 3.26554687 4.06640625 3.40234375 C2.82697266 3.66724609 2.82697266 3.66724609 1.5625 3.9375 C0.32693359 4.19853516 0.32693359 4.19853516 -0.93359375 4.46484375 C-2.97661204 4.80752994 -2.97661204 4.80752994 -4 6 C-5.66617115 6.04063832 -7.33388095 6.042721 -9 6 C-6.14693203 3.67527795 -3.45925163 2.2491742 0 1 C0 0.67 0 0.34 0 0 Z " fill="#165099" transform="translate(142,75)"/>
<path d="M0 0 C3.99996286 1.33332095 4.83782337 3.4957827 7 7 C5.02 7 3.04 7 1 7 C0.67 4.69 0.34 2.38 0 0 Z " fill="#184E9F" transform="translate(250,88)"/>
<path d="M0 0 C3.3 0.33 6.6 0.66 10 1 C10 1.33 10 1.66 10 2 C7.36 2 4.72 2 2 2 C2 2.66 2 3.32 2 4 C2.66 4 3.32 4 4 4 C4 5.32 4 6.64 4 8 C3.34 8 2.68 8 2 8 C0.74335022 5.09399739 0 3.20395416 0 0 Z " fill="#1C4684" transform="translate(206,69)"/>
<path d="M0 0 C0.33 0 0.66 0 1 0 C1.36552803 1.41377782 1.71695495 2.83120576 2.0625 4.25 C2.25972656 5.03890625 2.45695312 5.8278125 2.66015625 6.640625 C3.01497267 9.10394822 2.76877544 10.65604132 2 13 C0.48046875 11.82421875 0.48046875 11.82421875 -1 10 C-1.07421875 7.51953125 -1.07421875 7.51953125 -0.6875 4.8125 C-0.56761719 3.91144531 -0.44773437 3.01039063 -0.32421875 2.08203125 C-0.21722656 1.39496094 -0.11023438 0.70789063 0 0 Z " fill="#082961" transform="translate(286,135)"/>
<path d="M0 0 C3.95820859 0.56545837 6.6659053 1.80902348 10 4 C6.06329512 5.31223496 3.87511856 4.24296256 0 3 C0 2.01 0 1.02 0 0 Z " fill="#030303" transform="translate(199,341)"/>
<path d="M0 0 C1.32 0 2.64 0 4 0 C4 1.32 4 2.64 4 4 C4.66 4 5.32 4 6 4 C6 5.98 6 7.96 6 10 C4.5 8 4.5 8 3 6 C2.443125 5.29875 1.88625 4.5975 1.3125 3.875 C0 2 0 2 0 0 Z " fill="#0B1F3C" transform="translate(170,293)"/>
<path d="M0 0 C-1.11733729 1.50571657 -2.24410035 3.00444292 -3.375 4.5 C-4.00148438 5.3353125 -4.62796875 6.170625 -5.2734375 7.03125 C-5.84320313 7.6809375 -6.41296875 8.330625 -7 9 C-7.66 9 -8.32 9 -9 9 C-9 8.34 -9 7.68 -9 7 C-8.34 7 -7.68 7 -7 7 C-6.9175 6.05125 -6.835 5.1025 -6.75 4.125 C-6 1 -6 1 -4.0625 -0.4375 C-2 -1 -2 -1 0 0 Z " fill="#194CA1" transform="translate(271,266)"/>
<path d="M0 0 C2.475 0.99 2.475 0.99 5 2 C5.33 4.31 5.66 6.62 6 9 C5.01 9.495 5.01 9.495 4 10 C3.32845067 8.71086513 2.66291141 7.41859796 2 6.125 C1.62875 5.40570313 1.2575 4.68640625 0.875 3.9453125 C0 2 0 2 0 0 Z " fill="#093783" transform="translate(109,218)"/>
<path d="M0 0 C0.33 0 0.66 0 1 0 C1 2.31 1 4.62 1 7 C1.66 7 2.32 7 3 7 C3 7.99 3 8.98 3 10 C1.68 10.33 0.36 10.66 -1 11 C-1.125 3.375 -1.125 3.375 0 0 Z " fill="#0B3375" transform="translate(81,203)"/>
<path d="M0 0 C2.64 0.66 5.28 1.32 8 2 C8 2.66 8 3.32 8 4 C5.69 4.33 3.38 4.66 1 5 C0.67 3.35 0.34 1.7 0 0 Z " fill="#050505" transform="translate(240,356)"/>
<path d="M0 0 C2 1 2 1 2 1 Z M3 2 C-2.14285714 6.42857143 -2.14285714 6.42857143 -6 7 C-5.34 6.67 -4.68 6.34 -4 6 C-4 4.68 -4 3.36 -4 2 C-1.3333581 0.66667905 0.16680303 1.32897967 3 2 Z " fill="#050505" transform="translate(276,332)"/>
<path d="M0 0 C0.33 0 0.66 0 1 0 C1 2.31 1 4.62 1 7 C1.66 7 2.32 7 3 7 C1.25 11.875 1.25 11.875 -1 13 C-0.67 8.71 -0.34 4.42 0 0 Z " fill="#082053" transform="translate(77,152)"/>
<path d="M0 0 C0.66 0 1.32 0 2 0 C1.34 4.29 0.68 8.58 0 13 C-0.66 13 -1.32 13 -2 13 C-2.33 11.35 -2.66 9.7 -3 8 C-2.01 8 -1.02 8 0 8 C0 5.36 0 2.72 0 0 Z " fill="#0E3C81" transform="translate(83,137)"/>
<path d="M0 0 C0.66 0 1.32 0 2 0 C2.33 3.63 2.66 7.26 3 11 C2.67 10.01 2.34 9.02 2 8 C1.34 8 0.68 8 0 8 C-0.79953138 4.71303767 -1.09658936 3.28976808 0 0 Z " fill="#0C388D" transform="translate(262,150)"/>
<path d="M0 0 C1.85625 0.061875 1.85625 0.061875 3.75 0.125 C3.42 1.115 3.09 2.105 2.75 3.125 C-0.88 2.795 -4.51 2.465 -8.25 2.125 C-4.63863788 0.31931894 -3.705469 -0.12351563 0 0 Z " fill="#103473" transform="translate(176.25,65.875)"/>
<path d="M0 0 C0.66 0 1.32 0 2 0 C3.2380014 3.57644848 2.74926071 6.33694766 2 10 C1.67 8.68 1.34 7.36 1 6 C0.34 6 -0.32 6 -1 6 C-0.67 4.02 -0.34 2.04 0 0 Z " fill="#060606" transform="translate(26,351)"/>
<path d="M0 0 C2 2 2 2 2.125 5.625 C2.08375 6.73875 2.0425 7.8525 2 9 C0.68 9.33 -0.64 9.66 -2 10 C-1.34 6.7 -0.68 3.4 0 0 Z " fill="#0D387E" transform="translate(284,231)"/>
<path d="M0 0 C1.98 0 3.96 0 6 0 C6 0.99 6 1.98 6 3 C3.03 3.66 0.06 4.32 -3 5 C-2 3 -2 3 1 2 C0.67 1.34 0.34 0.68 0 0 Z " fill="#135BAD" transform="translate(172,72)"/>
<path d="M0 0 C0.66 0 1.32 0 2 0 C3.4783226 2.95664519 3.06032783 5.74229737 3 9 C0.86928411 6.40608501 -0.53582673 4.36525621 -1 1 C-0.67 0.67 -0.34 0.34 0 0 Z " fill="#092760" transform="translate(253,129)"/>
<path d="M0 0 C0.66 0 1.32 0 2 0 C2 1.32 2 2.64 2 4 C-0.64738916 5.4606285 -1.89448334 6 -5 6 C-4.67 5.01 -4.34 4.02 -4 3 C-1.9375 2.3125 -1.9375 2.3125 0 2 C0 1.34 0 0.68 0 0 Z " fill="#0D4F9F" transform="translate(229,75)"/>
<path d="M0 0 C0.99 0.33 1.98 0.66 3 1 C3 3.31 3 5.62 3 8 C2.67 7.01 2.34 6.02 2 5 C1.01 5 0.02 5 -1 5 C-0.67 3.35 -0.34 1.7 0 0 Z " fill="#0A2351" transform="translate(180,66)"/>
<path d="M0 0 C1.32 0.66 2.64 1.32 4 2 C0.81237635 4.12508244 -1.26512223 4.5020163 -5 5 C-3.35 3.35 -1.7 1.7 0 0 Z " fill="#020202" transform="translate(110,28)"/>
<path d="M0 0 C0.66 0 1.32 0 2 0 C2.33 2.31 2.66 4.62 3 7 C2.01 7.33 1.02 7.66 0 8 C0 7.34 0 6.68 0 6 C-0.66 5.67 -1.32 5.34 -2 5 C-1.01 4.34 -0.02 3.68 1 3 C0.67 2.01 0.34 1.02 0 0 Z " fill="#173E72" transform="translate(176,303)"/>
<path d="M0 0 C2.79872437 2.52788007 4.45773019 4.20411134 5 8 C4.34 8 3.68 8 3 8 C3 7.34 3 6.68 3 6 C2.34 6 1.68 6 1 6 C0.67 4.02 0.34 2.04 0 0 Z " fill="#1F497B" transform="translate(162,281)"/>
<path d="M0 0 C1.32 0 2.64 0 4 0 C4 2.31 4 4.62 4 7 C1.49962266 4.82575883 0.56371414 3.26954202 0 0 Z " fill="#07152B" transform="translate(160,275)"/>
<path d="M0 0 C0.33 0.66 0.66 1.32 1 2 C1.66 2 2.32 2 3 2 C2.67 4.31 2.34 6.62 2 9 C1.34 9 0.68 9 0 9 C0 6.03 0 3.06 0 0 Z " fill="#05225E" transform="translate(261,156)"/>
<path d="M0 0 C0.99 0 1.98 0 3 0 C3.33 1.98 3.66 3.96 4 6 C2.68 6 1.36 6 0 6 C0 4.02 0 2.04 0 0 Z " fill="#091B41" transform="translate(203,67)"/>
<path d="M0 0 C1.98 0 3.96 0 6 0 C4.6875 2 4.6875 2 3 4 C2.01 4 1.02 4 0 4 C0 2.68 0 1.36 0 0 Z " fill="#061545" transform="translate(259,277)"/>
<path d="M0 0 C0.66 0 1.32 0 2 0 C3.35015859 4.05047576 2.62084998 6.7920168 2 11 C1.67 11 1.34 11 1 11 C0.67 7.37 0.34 3.74 0 0 Z " fill="#07285B" transform="translate(258,141)"/>
<path d="M0 0 C1.65 0 3.3 0 5 0 C5.33 1.65 5.66 3.3 6 5 C3.98079663 3.69593116 1.98075027 2.36176581 0 1 C0 0.67 0 0.34 0 0 Z " fill="#083778" transform="translate(138,259)"/>
<path d="M0 0 C0.66 0 1.32 0 2 0 C2 2.64 2 5.28 2 8 C0.4375 6.25 0.4375 6.25 -1 4 C-0.6875 1.75 -0.6875 1.75 0 0 Z " fill="#0B2859" transform="translate(86,225)"/>
<path d="M0 0 C0.66 0 1.32 0 2 0 C2.33 1.32 2.66 2.64 3 4 C2.34 4 1.68 4 1 4 C0.67 5.32 0.34 6.64 0 8 C-0.38063221 5.6739143 -0.71269945 3.33944736 -1 1 C-0.67 0.67 -0.34 0.34 0 0 Z " fill="#0A2763" transform="translate(82,213)"/>
</svg>
